%TF.GenerationSoftware,KiCad,Pcbnew,7.0.2*%
%TF.CreationDate,2023-06-05T15:14:47+09:00*%
%TF.ProjectId,sync,73796e63-2e6b-4696-9361-645f70636258,rev?*%
%TF.SameCoordinates,PX3473bc0PY4c4b400*%
%TF.FileFunction,Drillmap*%
%TF.FilePolarity,Positive*%
%FSLAX45Y45*%
G04 Gerber Fmt 4.5, Leading zero omitted, Abs format (unit mm)*
G04 Created by KiCad (PCBNEW 7.0.2) date 2023-06-05 15:14:47*
%MOMM*%
%LPD*%
G01*
G04 APERTURE LIST*
%ADD10C,0.100000*%
%ADD11C,0.200000*%
%ADD12C,0.040000*%
%ADD13C,0.095000*%
G04 APERTURE END LIST*
D10*
X5000000Y500000D02*
X4500000Y0D01*
X500000Y0D01*
X0Y500000D01*
X0Y2000000D01*
X5000000Y2000000D01*
X5000000Y500000D01*
D11*
D12*
X2980000Y1795000D02*
X3020000Y1755000D01*
X3020000Y1795000D02*
X2980000Y1755000D01*
X3380000Y320000D02*
X3420000Y280000D01*
X3420000Y320000D02*
X3380000Y280000D01*
X3405000Y1070000D02*
X3445000Y1030000D01*
X3445000Y1070000D02*
X3405000Y1030000D01*
X3680000Y1795000D02*
X3720000Y1755000D01*
X3720000Y1795000D02*
X3680000Y1755000D01*
X4305000Y1020000D02*
X4345000Y980000D01*
X4345000Y1020000D02*
X4305000Y980000D01*
X4330000Y320000D02*
X4370000Y280000D01*
X4370000Y320000D02*
X4330000Y280000D01*
X4355000Y1795000D02*
X4395000Y1755000D01*
X4395000Y1795000D02*
X4355000Y1755000D01*
D13*
X807500Y1375000D02*
G75*
G03*
X807500Y1375000I-47500J0D01*
G01*
X807500Y1125000D02*
G75*
G03*
X807500Y1125000I-47500J0D01*
G01*
X807500Y875000D02*
G75*
G03*
X807500Y875000I-47500J0D01*
G01*
X807500Y625000D02*
G75*
G03*
X807500Y625000I-47500J0D01*
G01*
D10*
X3418000Y1550000D02*
X3418000Y1450000D01*
X3368000Y1500000D02*
X3468000Y1500000D01*
X3672000Y1550000D02*
X3672000Y1450000D01*
X3622000Y1500000D02*
X3722000Y1500000D01*
X3926000Y1550000D02*
X3926000Y1450000D01*
X3876000Y1500000D02*
X3976000Y1500000D01*
X4180000Y1550000D02*
X4180000Y1450000D01*
X4130000Y1500000D02*
X4230000Y1500000D01*
D11*
X242619Y-317524D02*
X242619Y-117524D01*
X242619Y-117524D02*
X290238Y-117524D01*
X290238Y-117524D02*
X318810Y-127048D01*
X318810Y-127048D02*
X337857Y-146095D01*
X337857Y-146095D02*
X347381Y-165143D01*
X347381Y-165143D02*
X356905Y-203238D01*
X356905Y-203238D02*
X356905Y-231809D01*
X356905Y-231809D02*
X347381Y-269905D01*
X347381Y-269905D02*
X337857Y-288952D01*
X337857Y-288952D02*
X318810Y-308000D01*
X318810Y-308000D02*
X290238Y-317524D01*
X290238Y-317524D02*
X242619Y-317524D01*
X442619Y-317524D02*
X442619Y-184190D01*
X442619Y-222286D02*
X452143Y-203238D01*
X452143Y-203238D02*
X461667Y-193714D01*
X461667Y-193714D02*
X480714Y-184190D01*
X480714Y-184190D02*
X499762Y-184190D01*
X566429Y-317524D02*
X566429Y-184190D01*
X566429Y-117524D02*
X556905Y-127048D01*
X556905Y-127048D02*
X566429Y-136571D01*
X566429Y-136571D02*
X575952Y-127048D01*
X575952Y-127048D02*
X566429Y-117524D01*
X566429Y-117524D02*
X566429Y-136571D01*
X690238Y-317524D02*
X671190Y-308000D01*
X671190Y-308000D02*
X661667Y-288952D01*
X661667Y-288952D02*
X661667Y-117524D01*
X795000Y-317524D02*
X775952Y-308000D01*
X775952Y-308000D02*
X766428Y-288952D01*
X766428Y-288952D02*
X766428Y-117524D01*
X1023571Y-317524D02*
X1023571Y-117524D01*
X1023571Y-117524D02*
X1090238Y-260381D01*
X1090238Y-260381D02*
X1156905Y-117524D01*
X1156905Y-117524D02*
X1156905Y-317524D01*
X1337857Y-317524D02*
X1337857Y-212762D01*
X1337857Y-212762D02*
X1328333Y-193714D01*
X1328333Y-193714D02*
X1309286Y-184190D01*
X1309286Y-184190D02*
X1271190Y-184190D01*
X1271190Y-184190D02*
X1252143Y-193714D01*
X1337857Y-308000D02*
X1318810Y-317524D01*
X1318810Y-317524D02*
X1271190Y-317524D01*
X1271190Y-317524D02*
X1252143Y-308000D01*
X1252143Y-308000D02*
X1242619Y-288952D01*
X1242619Y-288952D02*
X1242619Y-269905D01*
X1242619Y-269905D02*
X1252143Y-250857D01*
X1252143Y-250857D02*
X1271190Y-241333D01*
X1271190Y-241333D02*
X1318810Y-241333D01*
X1318810Y-241333D02*
X1337857Y-231809D01*
X1433095Y-184190D02*
X1433095Y-384190D01*
X1433095Y-193714D02*
X1452143Y-184190D01*
X1452143Y-184190D02*
X1490238Y-184190D01*
X1490238Y-184190D02*
X1509286Y-193714D01*
X1509286Y-193714D02*
X1518809Y-203238D01*
X1518809Y-203238D02*
X1528333Y-222286D01*
X1528333Y-222286D02*
X1528333Y-279429D01*
X1528333Y-279429D02*
X1518809Y-298476D01*
X1518809Y-298476D02*
X1509286Y-308000D01*
X1509286Y-308000D02*
X1490238Y-317524D01*
X1490238Y-317524D02*
X1452143Y-317524D01*
X1452143Y-317524D02*
X1433095Y-308000D01*
X1614048Y-298476D02*
X1623571Y-308000D01*
X1623571Y-308000D02*
X1614048Y-317524D01*
X1614048Y-317524D02*
X1604524Y-308000D01*
X1604524Y-308000D02*
X1614048Y-298476D01*
X1614048Y-298476D02*
X1614048Y-317524D01*
X1614048Y-193714D02*
X1623571Y-203238D01*
X1623571Y-203238D02*
X1614048Y-212762D01*
X1614048Y-212762D02*
X1604524Y-203238D01*
X1604524Y-203238D02*
X1614048Y-193714D01*
X1614048Y-193714D02*
X1614048Y-212762D01*
D12*
X-45000Y-625000D02*
X-5000Y-665000D01*
X-5000Y-625000D02*
X-45000Y-665000D01*
D11*
X280714Y-537524D02*
X299762Y-537524D01*
X299762Y-537524D02*
X318810Y-547048D01*
X318810Y-547048D02*
X328333Y-556571D01*
X328333Y-556571D02*
X337857Y-575619D01*
X337857Y-575619D02*
X347381Y-613714D01*
X347381Y-613714D02*
X347381Y-661333D01*
X347381Y-661333D02*
X337857Y-699428D01*
X337857Y-699428D02*
X328333Y-718476D01*
X328333Y-718476D02*
X318810Y-728000D01*
X318810Y-728000D02*
X299762Y-737524D01*
X299762Y-737524D02*
X280714Y-737524D01*
X280714Y-737524D02*
X261667Y-728000D01*
X261667Y-728000D02*
X252143Y-718476D01*
X252143Y-718476D02*
X242619Y-699428D01*
X242619Y-699428D02*
X233095Y-661333D01*
X233095Y-661333D02*
X233095Y-613714D01*
X233095Y-613714D02*
X242619Y-575619D01*
X242619Y-575619D02*
X252143Y-556571D01*
X252143Y-556571D02*
X261667Y-547048D01*
X261667Y-547048D02*
X280714Y-537524D01*
X433095Y-718476D02*
X442619Y-728000D01*
X442619Y-728000D02*
X433095Y-737524D01*
X433095Y-737524D02*
X423571Y-728000D01*
X423571Y-728000D02*
X433095Y-718476D01*
X433095Y-718476D02*
X433095Y-737524D01*
X614048Y-604190D02*
X614048Y-737524D01*
X566429Y-528000D02*
X518809Y-670857D01*
X518809Y-670857D02*
X642619Y-670857D01*
X756905Y-537524D02*
X775952Y-537524D01*
X775952Y-537524D02*
X795000Y-547048D01*
X795000Y-547048D02*
X804524Y-556571D01*
X804524Y-556571D02*
X814048Y-575619D01*
X814048Y-575619D02*
X823571Y-613714D01*
X823571Y-613714D02*
X823571Y-661333D01*
X823571Y-661333D02*
X814048Y-699428D01*
X814048Y-699428D02*
X804524Y-718476D01*
X804524Y-718476D02*
X795000Y-728000D01*
X795000Y-728000D02*
X775952Y-737524D01*
X775952Y-737524D02*
X756905Y-737524D01*
X756905Y-737524D02*
X737857Y-728000D01*
X737857Y-728000D02*
X728333Y-718476D01*
X728333Y-718476D02*
X718809Y-699428D01*
X718809Y-699428D02*
X709286Y-661333D01*
X709286Y-661333D02*
X709286Y-613714D01*
X709286Y-613714D02*
X718809Y-575619D01*
X718809Y-575619D02*
X728333Y-556571D01*
X728333Y-556571D02*
X737857Y-547048D01*
X737857Y-547048D02*
X756905Y-537524D01*
X947381Y-537524D02*
X966429Y-537524D01*
X966429Y-537524D02*
X985476Y-547048D01*
X985476Y-547048D02*
X995000Y-556571D01*
X995000Y-556571D02*
X1004524Y-575619D01*
X1004524Y-575619D02*
X1014048Y-613714D01*
X1014048Y-613714D02*
X1014048Y-661333D01*
X1014048Y-661333D02*
X1004524Y-699428D01*
X1004524Y-699428D02*
X995000Y-718476D01*
X995000Y-718476D02*
X985476Y-728000D01*
X985476Y-728000D02*
X966429Y-737524D01*
X966429Y-737524D02*
X947381Y-737524D01*
X947381Y-737524D02*
X928333Y-728000D01*
X928333Y-728000D02*
X918809Y-718476D01*
X918809Y-718476D02*
X909286Y-699428D01*
X909286Y-699428D02*
X899762Y-661333D01*
X899762Y-661333D02*
X899762Y-613714D01*
X899762Y-613714D02*
X909286Y-575619D01*
X909286Y-575619D02*
X918809Y-556571D01*
X918809Y-556571D02*
X928333Y-547048D01*
X928333Y-547048D02*
X947381Y-537524D01*
X1099762Y-737524D02*
X1099762Y-604190D01*
X1099762Y-623238D02*
X1109286Y-613714D01*
X1109286Y-613714D02*
X1128333Y-604190D01*
X1128333Y-604190D02*
X1156905Y-604190D01*
X1156905Y-604190D02*
X1175952Y-613714D01*
X1175952Y-613714D02*
X1185476Y-632762D01*
X1185476Y-632762D02*
X1185476Y-737524D01*
X1185476Y-632762D02*
X1195000Y-613714D01*
X1195000Y-613714D02*
X1214048Y-604190D01*
X1214048Y-604190D02*
X1242619Y-604190D01*
X1242619Y-604190D02*
X1261667Y-613714D01*
X1261667Y-613714D02*
X1271191Y-632762D01*
X1271191Y-632762D02*
X1271191Y-737524D01*
X1366429Y-737524D02*
X1366429Y-604190D01*
X1366429Y-623238D02*
X1375952Y-613714D01*
X1375952Y-613714D02*
X1395000Y-604190D01*
X1395000Y-604190D02*
X1423571Y-604190D01*
X1423571Y-604190D02*
X1442619Y-613714D01*
X1442619Y-613714D02*
X1452143Y-632762D01*
X1452143Y-632762D02*
X1452143Y-737524D01*
X1452143Y-632762D02*
X1461667Y-613714D01*
X1461667Y-613714D02*
X1480714Y-604190D01*
X1480714Y-604190D02*
X1509286Y-604190D01*
X1509286Y-604190D02*
X1528333Y-613714D01*
X1528333Y-613714D02*
X1537857Y-632762D01*
X1537857Y-632762D02*
X1537857Y-737524D01*
X1928333Y-528000D02*
X1756905Y-785143D01*
X2185476Y-537524D02*
X2204524Y-537524D01*
X2204524Y-537524D02*
X2223572Y-547048D01*
X2223572Y-547048D02*
X2233095Y-556571D01*
X2233095Y-556571D02*
X2242619Y-575619D01*
X2242619Y-575619D02*
X2252143Y-613714D01*
X2252143Y-613714D02*
X2252143Y-661333D01*
X2252143Y-661333D02*
X2242619Y-699428D01*
X2242619Y-699428D02*
X2233095Y-718476D01*
X2233095Y-718476D02*
X2223572Y-728000D01*
X2223572Y-728000D02*
X2204524Y-737524D01*
X2204524Y-737524D02*
X2185476Y-737524D01*
X2185476Y-737524D02*
X2166429Y-728000D01*
X2166429Y-728000D02*
X2156905Y-718476D01*
X2156905Y-718476D02*
X2147381Y-699428D01*
X2147381Y-699428D02*
X2137857Y-661333D01*
X2137857Y-661333D02*
X2137857Y-613714D01*
X2137857Y-613714D02*
X2147381Y-575619D01*
X2147381Y-575619D02*
X2156905Y-556571D01*
X2156905Y-556571D02*
X2166429Y-547048D01*
X2166429Y-547048D02*
X2185476Y-537524D01*
X2337857Y-718476D02*
X2347381Y-728000D01*
X2347381Y-728000D02*
X2337857Y-737524D01*
X2337857Y-737524D02*
X2328334Y-728000D01*
X2328334Y-728000D02*
X2337857Y-718476D01*
X2337857Y-718476D02*
X2337857Y-737524D01*
X2471191Y-537524D02*
X2490238Y-537524D01*
X2490238Y-537524D02*
X2509286Y-547048D01*
X2509286Y-547048D02*
X2518810Y-556571D01*
X2518810Y-556571D02*
X2528334Y-575619D01*
X2528334Y-575619D02*
X2537857Y-613714D01*
X2537857Y-613714D02*
X2537857Y-661333D01*
X2537857Y-661333D02*
X2528334Y-699428D01*
X2528334Y-699428D02*
X2518810Y-718476D01*
X2518810Y-718476D02*
X2509286Y-728000D01*
X2509286Y-728000D02*
X2490238Y-737524D01*
X2490238Y-737524D02*
X2471191Y-737524D01*
X2471191Y-737524D02*
X2452143Y-728000D01*
X2452143Y-728000D02*
X2442619Y-718476D01*
X2442619Y-718476D02*
X2433095Y-699428D01*
X2433095Y-699428D02*
X2423572Y-661333D01*
X2423572Y-661333D02*
X2423572Y-613714D01*
X2423572Y-613714D02*
X2433095Y-575619D01*
X2433095Y-575619D02*
X2442619Y-556571D01*
X2442619Y-556571D02*
X2452143Y-547048D01*
X2452143Y-547048D02*
X2471191Y-537524D01*
X2728334Y-737524D02*
X2614048Y-737524D01*
X2671191Y-737524D02*
X2671191Y-537524D01*
X2671191Y-537524D02*
X2652143Y-566095D01*
X2652143Y-566095D02*
X2633095Y-585143D01*
X2633095Y-585143D02*
X2614048Y-594667D01*
X2909286Y-537524D02*
X2814048Y-537524D01*
X2814048Y-537524D02*
X2804524Y-632762D01*
X2804524Y-632762D02*
X2814048Y-623238D01*
X2814048Y-623238D02*
X2833095Y-613714D01*
X2833095Y-613714D02*
X2880714Y-613714D01*
X2880714Y-613714D02*
X2899762Y-623238D01*
X2899762Y-623238D02*
X2909286Y-632762D01*
X2909286Y-632762D02*
X2918810Y-651810D01*
X2918810Y-651810D02*
X2918810Y-699428D01*
X2918810Y-699428D02*
X2909286Y-718476D01*
X2909286Y-718476D02*
X2899762Y-728000D01*
X2899762Y-728000D02*
X2880714Y-737524D01*
X2880714Y-737524D02*
X2833095Y-737524D01*
X2833095Y-737524D02*
X2814048Y-728000D01*
X2814048Y-728000D02*
X2804524Y-718476D01*
X2985476Y-537524D02*
X3118810Y-537524D01*
X3118810Y-537524D02*
X3033095Y-737524D01*
X3185476Y-537524D02*
X3185476Y-575619D01*
X3261667Y-537524D02*
X3261667Y-575619D01*
X3556905Y-813714D02*
X3547381Y-804190D01*
X3547381Y-804190D02*
X3528334Y-775619D01*
X3528334Y-775619D02*
X3518810Y-756571D01*
X3518810Y-756571D02*
X3509286Y-728000D01*
X3509286Y-728000D02*
X3499762Y-680381D01*
X3499762Y-680381D02*
X3499762Y-642286D01*
X3499762Y-642286D02*
X3509286Y-594667D01*
X3509286Y-594667D02*
X3518810Y-566095D01*
X3518810Y-566095D02*
X3528334Y-547048D01*
X3528334Y-547048D02*
X3547381Y-518476D01*
X3547381Y-518476D02*
X3556905Y-508952D01*
X3614048Y-537524D02*
X3747381Y-537524D01*
X3747381Y-537524D02*
X3661667Y-737524D01*
X3975953Y-737524D02*
X3975953Y-537524D01*
X4061667Y-737524D02*
X4061667Y-632762D01*
X4061667Y-632762D02*
X4052143Y-613714D01*
X4052143Y-613714D02*
X4033096Y-604190D01*
X4033096Y-604190D02*
X4004524Y-604190D01*
X4004524Y-604190D02*
X3985476Y-613714D01*
X3985476Y-613714D02*
X3975953Y-623238D01*
X4185476Y-737524D02*
X4166429Y-728000D01*
X4166429Y-728000D02*
X4156905Y-718476D01*
X4156905Y-718476D02*
X4147381Y-699428D01*
X4147381Y-699428D02*
X4147381Y-642286D01*
X4147381Y-642286D02*
X4156905Y-623238D01*
X4156905Y-623238D02*
X4166429Y-613714D01*
X4166429Y-613714D02*
X4185476Y-604190D01*
X4185476Y-604190D02*
X4214048Y-604190D01*
X4214048Y-604190D02*
X4233096Y-613714D01*
X4233096Y-613714D02*
X4242619Y-623238D01*
X4242619Y-623238D02*
X4252143Y-642286D01*
X4252143Y-642286D02*
X4252143Y-699428D01*
X4252143Y-699428D02*
X4242619Y-718476D01*
X4242619Y-718476D02*
X4233096Y-728000D01*
X4233096Y-728000D02*
X4214048Y-737524D01*
X4214048Y-737524D02*
X4185476Y-737524D01*
X4366429Y-737524D02*
X4347381Y-728000D01*
X4347381Y-728000D02*
X4337858Y-708952D01*
X4337858Y-708952D02*
X4337858Y-537524D01*
X4518810Y-728000D02*
X4499762Y-737524D01*
X4499762Y-737524D02*
X4461667Y-737524D01*
X4461667Y-737524D02*
X4442619Y-728000D01*
X4442619Y-728000D02*
X4433096Y-708952D01*
X4433096Y-708952D02*
X4433096Y-632762D01*
X4433096Y-632762D02*
X4442619Y-613714D01*
X4442619Y-613714D02*
X4461667Y-604190D01*
X4461667Y-604190D02*
X4499762Y-604190D01*
X4499762Y-604190D02*
X4518810Y-613714D01*
X4518810Y-613714D02*
X4528334Y-632762D01*
X4528334Y-632762D02*
X4528334Y-651810D01*
X4528334Y-651810D02*
X4433096Y-670857D01*
X4604524Y-728000D02*
X4623572Y-737524D01*
X4623572Y-737524D02*
X4661667Y-737524D01*
X4661667Y-737524D02*
X4680715Y-728000D01*
X4680715Y-728000D02*
X4690239Y-708952D01*
X4690239Y-708952D02*
X4690239Y-699428D01*
X4690239Y-699428D02*
X4680715Y-680381D01*
X4680715Y-680381D02*
X4661667Y-670857D01*
X4661667Y-670857D02*
X4633096Y-670857D01*
X4633096Y-670857D02*
X4614048Y-661333D01*
X4614048Y-661333D02*
X4604524Y-642286D01*
X4604524Y-642286D02*
X4604524Y-632762D01*
X4604524Y-632762D02*
X4614048Y-613714D01*
X4614048Y-613714D02*
X4633096Y-604190D01*
X4633096Y-604190D02*
X4661667Y-604190D01*
X4661667Y-604190D02*
X4680715Y-613714D01*
X4756905Y-813714D02*
X4766429Y-804190D01*
X4766429Y-804190D02*
X4785477Y-775619D01*
X4785477Y-775619D02*
X4795000Y-756571D01*
X4795000Y-756571D02*
X4804524Y-728000D01*
X4804524Y-728000D02*
X4814048Y-680381D01*
X4814048Y-680381D02*
X4814048Y-642286D01*
X4814048Y-642286D02*
X4804524Y-594667D01*
X4804524Y-594667D02*
X4795000Y-566095D01*
X4795000Y-566095D02*
X4785477Y-547048D01*
X4785477Y-547048D02*
X4766429Y-518476D01*
X4766429Y-518476D02*
X4756905Y-508952D01*
D13*
X-5000Y-909000D02*
G75*
G03*
X-5000Y-909000I-47500J0D01*
G01*
D11*
X280714Y-801524D02*
X299762Y-801524D01*
X299762Y-801524D02*
X318810Y-811048D01*
X318810Y-811048D02*
X328333Y-820571D01*
X328333Y-820571D02*
X337857Y-839619D01*
X337857Y-839619D02*
X347381Y-877714D01*
X347381Y-877714D02*
X347381Y-925333D01*
X347381Y-925333D02*
X337857Y-963428D01*
X337857Y-963428D02*
X328333Y-982476D01*
X328333Y-982476D02*
X318810Y-992000D01*
X318810Y-992000D02*
X299762Y-1001524D01*
X299762Y-1001524D02*
X280714Y-1001524D01*
X280714Y-1001524D02*
X261667Y-992000D01*
X261667Y-992000D02*
X252143Y-982476D01*
X252143Y-982476D02*
X242619Y-963428D01*
X242619Y-963428D02*
X233095Y-925333D01*
X233095Y-925333D02*
X233095Y-877714D01*
X233095Y-877714D02*
X242619Y-839619D01*
X242619Y-839619D02*
X252143Y-820571D01*
X252143Y-820571D02*
X261667Y-811048D01*
X261667Y-811048D02*
X280714Y-801524D01*
X433095Y-982476D02*
X442619Y-992000D01*
X442619Y-992000D02*
X433095Y-1001524D01*
X433095Y-1001524D02*
X423571Y-992000D01*
X423571Y-992000D02*
X433095Y-982476D01*
X433095Y-982476D02*
X433095Y-1001524D01*
X537857Y-1001524D02*
X575952Y-1001524D01*
X575952Y-1001524D02*
X595000Y-992000D01*
X595000Y-992000D02*
X604524Y-982476D01*
X604524Y-982476D02*
X623571Y-953905D01*
X623571Y-953905D02*
X633095Y-915809D01*
X633095Y-915809D02*
X633095Y-839619D01*
X633095Y-839619D02*
X623571Y-820571D01*
X623571Y-820571D02*
X614048Y-811048D01*
X614048Y-811048D02*
X595000Y-801524D01*
X595000Y-801524D02*
X556905Y-801524D01*
X556905Y-801524D02*
X537857Y-811048D01*
X537857Y-811048D02*
X528333Y-820571D01*
X528333Y-820571D02*
X518809Y-839619D01*
X518809Y-839619D02*
X518809Y-887238D01*
X518809Y-887238D02*
X528333Y-906286D01*
X528333Y-906286D02*
X537857Y-915809D01*
X537857Y-915809D02*
X556905Y-925333D01*
X556905Y-925333D02*
X595000Y-925333D01*
X595000Y-925333D02*
X614048Y-915809D01*
X614048Y-915809D02*
X623571Y-906286D01*
X623571Y-906286D02*
X633095Y-887238D01*
X814048Y-801524D02*
X718809Y-801524D01*
X718809Y-801524D02*
X709286Y-896762D01*
X709286Y-896762D02*
X718809Y-887238D01*
X718809Y-887238D02*
X737857Y-877714D01*
X737857Y-877714D02*
X785476Y-877714D01*
X785476Y-877714D02*
X804524Y-887238D01*
X804524Y-887238D02*
X814048Y-896762D01*
X814048Y-896762D02*
X823571Y-915809D01*
X823571Y-915809D02*
X823571Y-963428D01*
X823571Y-963428D02*
X814048Y-982476D01*
X814048Y-982476D02*
X804524Y-992000D01*
X804524Y-992000D02*
X785476Y-1001524D01*
X785476Y-1001524D02*
X737857Y-1001524D01*
X737857Y-1001524D02*
X718809Y-992000D01*
X718809Y-992000D02*
X709286Y-982476D01*
X947381Y-801524D02*
X966429Y-801524D01*
X966429Y-801524D02*
X985476Y-811048D01*
X985476Y-811048D02*
X995000Y-820571D01*
X995000Y-820571D02*
X1004524Y-839619D01*
X1004524Y-839619D02*
X1014048Y-877714D01*
X1014048Y-877714D02*
X1014048Y-925333D01*
X1014048Y-925333D02*
X1004524Y-963428D01*
X1004524Y-963428D02*
X995000Y-982476D01*
X995000Y-982476D02*
X985476Y-992000D01*
X985476Y-992000D02*
X966429Y-1001524D01*
X966429Y-1001524D02*
X947381Y-1001524D01*
X947381Y-1001524D02*
X928333Y-992000D01*
X928333Y-992000D02*
X918809Y-982476D01*
X918809Y-982476D02*
X909286Y-963428D01*
X909286Y-963428D02*
X899762Y-925333D01*
X899762Y-925333D02*
X899762Y-877714D01*
X899762Y-877714D02*
X909286Y-839619D01*
X909286Y-839619D02*
X918809Y-820571D01*
X918809Y-820571D02*
X928333Y-811048D01*
X928333Y-811048D02*
X947381Y-801524D01*
X1099762Y-1001524D02*
X1099762Y-868190D01*
X1099762Y-887238D02*
X1109286Y-877714D01*
X1109286Y-877714D02*
X1128333Y-868190D01*
X1128333Y-868190D02*
X1156905Y-868190D01*
X1156905Y-868190D02*
X1175952Y-877714D01*
X1175952Y-877714D02*
X1185476Y-896762D01*
X1185476Y-896762D02*
X1185476Y-1001524D01*
X1185476Y-896762D02*
X1195000Y-877714D01*
X1195000Y-877714D02*
X1214048Y-868190D01*
X1214048Y-868190D02*
X1242619Y-868190D01*
X1242619Y-868190D02*
X1261667Y-877714D01*
X1261667Y-877714D02*
X1271191Y-896762D01*
X1271191Y-896762D02*
X1271191Y-1001524D01*
X1366429Y-1001524D02*
X1366429Y-868190D01*
X1366429Y-887238D02*
X1375952Y-877714D01*
X1375952Y-877714D02*
X1395000Y-868190D01*
X1395000Y-868190D02*
X1423571Y-868190D01*
X1423571Y-868190D02*
X1442619Y-877714D01*
X1442619Y-877714D02*
X1452143Y-896762D01*
X1452143Y-896762D02*
X1452143Y-1001524D01*
X1452143Y-896762D02*
X1461667Y-877714D01*
X1461667Y-877714D02*
X1480714Y-868190D01*
X1480714Y-868190D02*
X1509286Y-868190D01*
X1509286Y-868190D02*
X1528333Y-877714D01*
X1528333Y-877714D02*
X1537857Y-896762D01*
X1537857Y-896762D02*
X1537857Y-1001524D01*
X1928333Y-792000D02*
X1756905Y-1049143D01*
X2185476Y-801524D02*
X2204524Y-801524D01*
X2204524Y-801524D02*
X2223572Y-811048D01*
X2223572Y-811048D02*
X2233095Y-820571D01*
X2233095Y-820571D02*
X2242619Y-839619D01*
X2242619Y-839619D02*
X2252143Y-877714D01*
X2252143Y-877714D02*
X2252143Y-925333D01*
X2252143Y-925333D02*
X2242619Y-963428D01*
X2242619Y-963428D02*
X2233095Y-982476D01*
X2233095Y-982476D02*
X2223572Y-992000D01*
X2223572Y-992000D02*
X2204524Y-1001524D01*
X2204524Y-1001524D02*
X2185476Y-1001524D01*
X2185476Y-1001524D02*
X2166429Y-992000D01*
X2166429Y-992000D02*
X2156905Y-982476D01*
X2156905Y-982476D02*
X2147381Y-963428D01*
X2147381Y-963428D02*
X2137857Y-925333D01*
X2137857Y-925333D02*
X2137857Y-877714D01*
X2137857Y-877714D02*
X2147381Y-839619D01*
X2147381Y-839619D02*
X2156905Y-820571D01*
X2156905Y-820571D02*
X2166429Y-811048D01*
X2166429Y-811048D02*
X2185476Y-801524D01*
X2337857Y-982476D02*
X2347381Y-992000D01*
X2347381Y-992000D02*
X2337857Y-1001524D01*
X2337857Y-1001524D02*
X2328334Y-992000D01*
X2328334Y-992000D02*
X2337857Y-982476D01*
X2337857Y-982476D02*
X2337857Y-1001524D01*
X2471191Y-801524D02*
X2490238Y-801524D01*
X2490238Y-801524D02*
X2509286Y-811048D01*
X2509286Y-811048D02*
X2518810Y-820571D01*
X2518810Y-820571D02*
X2528334Y-839619D01*
X2528334Y-839619D02*
X2537857Y-877714D01*
X2537857Y-877714D02*
X2537857Y-925333D01*
X2537857Y-925333D02*
X2528334Y-963428D01*
X2528334Y-963428D02*
X2518810Y-982476D01*
X2518810Y-982476D02*
X2509286Y-992000D01*
X2509286Y-992000D02*
X2490238Y-1001524D01*
X2490238Y-1001524D02*
X2471191Y-1001524D01*
X2471191Y-1001524D02*
X2452143Y-992000D01*
X2452143Y-992000D02*
X2442619Y-982476D01*
X2442619Y-982476D02*
X2433095Y-963428D01*
X2433095Y-963428D02*
X2423572Y-925333D01*
X2423572Y-925333D02*
X2423572Y-877714D01*
X2423572Y-877714D02*
X2433095Y-839619D01*
X2433095Y-839619D02*
X2442619Y-820571D01*
X2442619Y-820571D02*
X2452143Y-811048D01*
X2452143Y-811048D02*
X2471191Y-801524D01*
X2604524Y-801524D02*
X2728334Y-801524D01*
X2728334Y-801524D02*
X2661667Y-877714D01*
X2661667Y-877714D02*
X2690238Y-877714D01*
X2690238Y-877714D02*
X2709286Y-887238D01*
X2709286Y-887238D02*
X2718810Y-896762D01*
X2718810Y-896762D02*
X2728334Y-915809D01*
X2728334Y-915809D02*
X2728334Y-963428D01*
X2728334Y-963428D02*
X2718810Y-982476D01*
X2718810Y-982476D02*
X2709286Y-992000D01*
X2709286Y-992000D02*
X2690238Y-1001524D01*
X2690238Y-1001524D02*
X2633095Y-1001524D01*
X2633095Y-1001524D02*
X2614048Y-992000D01*
X2614048Y-992000D02*
X2604524Y-982476D01*
X2795000Y-801524D02*
X2928333Y-801524D01*
X2928333Y-801524D02*
X2842619Y-1001524D01*
X3090238Y-868190D02*
X3090238Y-1001524D01*
X3042619Y-792000D02*
X2995000Y-934857D01*
X2995000Y-934857D02*
X3118810Y-934857D01*
X3185476Y-801524D02*
X3185476Y-839619D01*
X3261667Y-801524D02*
X3261667Y-839619D01*
X3556905Y-1077714D02*
X3547381Y-1068190D01*
X3547381Y-1068190D02*
X3528334Y-1039619D01*
X3528334Y-1039619D02*
X3518810Y-1020571D01*
X3518810Y-1020571D02*
X3509286Y-992000D01*
X3509286Y-992000D02*
X3499762Y-944381D01*
X3499762Y-944381D02*
X3499762Y-906286D01*
X3499762Y-906286D02*
X3509286Y-858667D01*
X3509286Y-858667D02*
X3518810Y-830095D01*
X3518810Y-830095D02*
X3528334Y-811048D01*
X3528334Y-811048D02*
X3547381Y-782476D01*
X3547381Y-782476D02*
X3556905Y-772952D01*
X3718810Y-868190D02*
X3718810Y-1001524D01*
X3671191Y-792000D02*
X3623572Y-934857D01*
X3623572Y-934857D02*
X3747381Y-934857D01*
X3975953Y-1001524D02*
X3975953Y-801524D01*
X4061667Y-1001524D02*
X4061667Y-896762D01*
X4061667Y-896762D02*
X4052143Y-877714D01*
X4052143Y-877714D02*
X4033096Y-868190D01*
X4033096Y-868190D02*
X4004524Y-868190D01*
X4004524Y-868190D02*
X3985476Y-877714D01*
X3985476Y-877714D02*
X3975953Y-887238D01*
X4185476Y-1001524D02*
X4166429Y-992000D01*
X4166429Y-992000D02*
X4156905Y-982476D01*
X4156905Y-982476D02*
X4147381Y-963428D01*
X4147381Y-963428D02*
X4147381Y-906286D01*
X4147381Y-906286D02*
X4156905Y-887238D01*
X4156905Y-887238D02*
X4166429Y-877714D01*
X4166429Y-877714D02*
X4185476Y-868190D01*
X4185476Y-868190D02*
X4214048Y-868190D01*
X4214048Y-868190D02*
X4233096Y-877714D01*
X4233096Y-877714D02*
X4242619Y-887238D01*
X4242619Y-887238D02*
X4252143Y-906286D01*
X4252143Y-906286D02*
X4252143Y-963428D01*
X4252143Y-963428D02*
X4242619Y-982476D01*
X4242619Y-982476D02*
X4233096Y-992000D01*
X4233096Y-992000D02*
X4214048Y-1001524D01*
X4214048Y-1001524D02*
X4185476Y-1001524D01*
X4366429Y-1001524D02*
X4347381Y-992000D01*
X4347381Y-992000D02*
X4337858Y-972952D01*
X4337858Y-972952D02*
X4337858Y-801524D01*
X4518810Y-992000D02*
X4499762Y-1001524D01*
X4499762Y-1001524D02*
X4461667Y-1001524D01*
X4461667Y-1001524D02*
X4442619Y-992000D01*
X4442619Y-992000D02*
X4433096Y-972952D01*
X4433096Y-972952D02*
X4433096Y-896762D01*
X4433096Y-896762D02*
X4442619Y-877714D01*
X4442619Y-877714D02*
X4461667Y-868190D01*
X4461667Y-868190D02*
X4499762Y-868190D01*
X4499762Y-868190D02*
X4518810Y-877714D01*
X4518810Y-877714D02*
X4528334Y-896762D01*
X4528334Y-896762D02*
X4528334Y-915809D01*
X4528334Y-915809D02*
X4433096Y-934857D01*
X4604524Y-992000D02*
X4623572Y-1001524D01*
X4623572Y-1001524D02*
X4661667Y-1001524D01*
X4661667Y-1001524D02*
X4680715Y-992000D01*
X4680715Y-992000D02*
X4690239Y-972952D01*
X4690239Y-972952D02*
X4690239Y-963428D01*
X4690239Y-963428D02*
X4680715Y-944381D01*
X4680715Y-944381D02*
X4661667Y-934857D01*
X4661667Y-934857D02*
X4633096Y-934857D01*
X4633096Y-934857D02*
X4614048Y-925333D01*
X4614048Y-925333D02*
X4604524Y-906286D01*
X4604524Y-906286D02*
X4604524Y-896762D01*
X4604524Y-896762D02*
X4614048Y-877714D01*
X4614048Y-877714D02*
X4633096Y-868190D01*
X4633096Y-868190D02*
X4661667Y-868190D01*
X4661667Y-868190D02*
X4680715Y-877714D01*
X4756905Y-1077714D02*
X4766429Y-1068190D01*
X4766429Y-1068190D02*
X4785477Y-1039619D01*
X4785477Y-1039619D02*
X4795000Y-1020571D01*
X4795000Y-1020571D02*
X4804524Y-992000D01*
X4804524Y-992000D02*
X4814048Y-944381D01*
X4814048Y-944381D02*
X4814048Y-906286D01*
X4814048Y-906286D02*
X4804524Y-858667D01*
X4804524Y-858667D02*
X4795000Y-830095D01*
X4795000Y-830095D02*
X4785477Y-811048D01*
X4785477Y-811048D02*
X4766429Y-782476D01*
X4766429Y-782476D02*
X4756905Y-772952D01*
D10*
X-55000Y-1123000D02*
X-55000Y-1223000D01*
X-105000Y-1173000D02*
X-5000Y-1173000D01*
D11*
X347381Y-1265524D02*
X233095Y-1265524D01*
X290238Y-1265524D02*
X290238Y-1065524D01*
X290238Y-1065524D02*
X271190Y-1094095D01*
X271190Y-1094095D02*
X252143Y-1113143D01*
X252143Y-1113143D02*
X233095Y-1122667D01*
X433095Y-1246476D02*
X442619Y-1256000D01*
X442619Y-1256000D02*
X433095Y-1265524D01*
X433095Y-1265524D02*
X423571Y-1256000D01*
X423571Y-1256000D02*
X433095Y-1246476D01*
X433095Y-1246476D02*
X433095Y-1265524D01*
X566429Y-1065524D02*
X585476Y-1065524D01*
X585476Y-1065524D02*
X604524Y-1075048D01*
X604524Y-1075048D02*
X614048Y-1084571D01*
X614048Y-1084571D02*
X623571Y-1103619D01*
X623571Y-1103619D02*
X633095Y-1141714D01*
X633095Y-1141714D02*
X633095Y-1189333D01*
X633095Y-1189333D02*
X623571Y-1227429D01*
X623571Y-1227429D02*
X614048Y-1246476D01*
X614048Y-1246476D02*
X604524Y-1256000D01*
X604524Y-1256000D02*
X585476Y-1265524D01*
X585476Y-1265524D02*
X566429Y-1265524D01*
X566429Y-1265524D02*
X547381Y-1256000D01*
X547381Y-1256000D02*
X537857Y-1246476D01*
X537857Y-1246476D02*
X528333Y-1227429D01*
X528333Y-1227429D02*
X518809Y-1189333D01*
X518809Y-1189333D02*
X518809Y-1141714D01*
X518809Y-1141714D02*
X528333Y-1103619D01*
X528333Y-1103619D02*
X537857Y-1084571D01*
X537857Y-1084571D02*
X547381Y-1075048D01*
X547381Y-1075048D02*
X566429Y-1065524D01*
X756905Y-1065524D02*
X775952Y-1065524D01*
X775952Y-1065524D02*
X795000Y-1075048D01*
X795000Y-1075048D02*
X804524Y-1084571D01*
X804524Y-1084571D02*
X814048Y-1103619D01*
X814048Y-1103619D02*
X823571Y-1141714D01*
X823571Y-1141714D02*
X823571Y-1189333D01*
X823571Y-1189333D02*
X814048Y-1227429D01*
X814048Y-1227429D02*
X804524Y-1246476D01*
X804524Y-1246476D02*
X795000Y-1256000D01*
X795000Y-1256000D02*
X775952Y-1265524D01*
X775952Y-1265524D02*
X756905Y-1265524D01*
X756905Y-1265524D02*
X737857Y-1256000D01*
X737857Y-1256000D02*
X728333Y-1246476D01*
X728333Y-1246476D02*
X718809Y-1227429D01*
X718809Y-1227429D02*
X709286Y-1189333D01*
X709286Y-1189333D02*
X709286Y-1141714D01*
X709286Y-1141714D02*
X718809Y-1103619D01*
X718809Y-1103619D02*
X728333Y-1084571D01*
X728333Y-1084571D02*
X737857Y-1075048D01*
X737857Y-1075048D02*
X756905Y-1065524D01*
X947381Y-1065524D02*
X966429Y-1065524D01*
X966429Y-1065524D02*
X985476Y-1075048D01*
X985476Y-1075048D02*
X995000Y-1084571D01*
X995000Y-1084571D02*
X1004524Y-1103619D01*
X1004524Y-1103619D02*
X1014048Y-1141714D01*
X1014048Y-1141714D02*
X1014048Y-1189333D01*
X1014048Y-1189333D02*
X1004524Y-1227429D01*
X1004524Y-1227429D02*
X995000Y-1246476D01*
X995000Y-1246476D02*
X985476Y-1256000D01*
X985476Y-1256000D02*
X966429Y-1265524D01*
X966429Y-1265524D02*
X947381Y-1265524D01*
X947381Y-1265524D02*
X928333Y-1256000D01*
X928333Y-1256000D02*
X918809Y-1246476D01*
X918809Y-1246476D02*
X909286Y-1227429D01*
X909286Y-1227429D02*
X899762Y-1189333D01*
X899762Y-1189333D02*
X899762Y-1141714D01*
X899762Y-1141714D02*
X909286Y-1103619D01*
X909286Y-1103619D02*
X918809Y-1084571D01*
X918809Y-1084571D02*
X928333Y-1075048D01*
X928333Y-1075048D02*
X947381Y-1065524D01*
X1099762Y-1265524D02*
X1099762Y-1132190D01*
X1099762Y-1151238D02*
X1109286Y-1141714D01*
X1109286Y-1141714D02*
X1128333Y-1132190D01*
X1128333Y-1132190D02*
X1156905Y-1132190D01*
X1156905Y-1132190D02*
X1175952Y-1141714D01*
X1175952Y-1141714D02*
X1185476Y-1160762D01*
X1185476Y-1160762D02*
X1185476Y-1265524D01*
X1185476Y-1160762D02*
X1195000Y-1141714D01*
X1195000Y-1141714D02*
X1214048Y-1132190D01*
X1214048Y-1132190D02*
X1242619Y-1132190D01*
X1242619Y-1132190D02*
X1261667Y-1141714D01*
X1261667Y-1141714D02*
X1271191Y-1160762D01*
X1271191Y-1160762D02*
X1271191Y-1265524D01*
X1366429Y-1265524D02*
X1366429Y-1132190D01*
X1366429Y-1151238D02*
X1375952Y-1141714D01*
X1375952Y-1141714D02*
X1395000Y-1132190D01*
X1395000Y-1132190D02*
X1423571Y-1132190D01*
X1423571Y-1132190D02*
X1442619Y-1141714D01*
X1442619Y-1141714D02*
X1452143Y-1160762D01*
X1452143Y-1160762D02*
X1452143Y-1265524D01*
X1452143Y-1160762D02*
X1461667Y-1141714D01*
X1461667Y-1141714D02*
X1480714Y-1132190D01*
X1480714Y-1132190D02*
X1509286Y-1132190D01*
X1509286Y-1132190D02*
X1528333Y-1141714D01*
X1528333Y-1141714D02*
X1537857Y-1160762D01*
X1537857Y-1160762D02*
X1537857Y-1265524D01*
X1928333Y-1056000D02*
X1756905Y-1313143D01*
X2185476Y-1065524D02*
X2204524Y-1065524D01*
X2204524Y-1065524D02*
X2223572Y-1075048D01*
X2223572Y-1075048D02*
X2233095Y-1084571D01*
X2233095Y-1084571D02*
X2242619Y-1103619D01*
X2242619Y-1103619D02*
X2252143Y-1141714D01*
X2252143Y-1141714D02*
X2252143Y-1189333D01*
X2252143Y-1189333D02*
X2242619Y-1227429D01*
X2242619Y-1227429D02*
X2233095Y-1246476D01*
X2233095Y-1246476D02*
X2223572Y-1256000D01*
X2223572Y-1256000D02*
X2204524Y-1265524D01*
X2204524Y-1265524D02*
X2185476Y-1265524D01*
X2185476Y-1265524D02*
X2166429Y-1256000D01*
X2166429Y-1256000D02*
X2156905Y-1246476D01*
X2156905Y-1246476D02*
X2147381Y-1227429D01*
X2147381Y-1227429D02*
X2137857Y-1189333D01*
X2137857Y-1189333D02*
X2137857Y-1141714D01*
X2137857Y-1141714D02*
X2147381Y-1103619D01*
X2147381Y-1103619D02*
X2156905Y-1084571D01*
X2156905Y-1084571D02*
X2166429Y-1075048D01*
X2166429Y-1075048D02*
X2185476Y-1065524D01*
X2337857Y-1246476D02*
X2347381Y-1256000D01*
X2347381Y-1256000D02*
X2337857Y-1265524D01*
X2337857Y-1265524D02*
X2328334Y-1256000D01*
X2328334Y-1256000D02*
X2337857Y-1246476D01*
X2337857Y-1246476D02*
X2337857Y-1265524D01*
X2471191Y-1065524D02*
X2490238Y-1065524D01*
X2490238Y-1065524D02*
X2509286Y-1075048D01*
X2509286Y-1075048D02*
X2518810Y-1084571D01*
X2518810Y-1084571D02*
X2528334Y-1103619D01*
X2528334Y-1103619D02*
X2537857Y-1141714D01*
X2537857Y-1141714D02*
X2537857Y-1189333D01*
X2537857Y-1189333D02*
X2528334Y-1227429D01*
X2528334Y-1227429D02*
X2518810Y-1246476D01*
X2518810Y-1246476D02*
X2509286Y-1256000D01*
X2509286Y-1256000D02*
X2490238Y-1265524D01*
X2490238Y-1265524D02*
X2471191Y-1265524D01*
X2471191Y-1265524D02*
X2452143Y-1256000D01*
X2452143Y-1256000D02*
X2442619Y-1246476D01*
X2442619Y-1246476D02*
X2433095Y-1227429D01*
X2433095Y-1227429D02*
X2423572Y-1189333D01*
X2423572Y-1189333D02*
X2423572Y-1141714D01*
X2423572Y-1141714D02*
X2433095Y-1103619D01*
X2433095Y-1103619D02*
X2442619Y-1084571D01*
X2442619Y-1084571D02*
X2452143Y-1075048D01*
X2452143Y-1075048D02*
X2471191Y-1065524D01*
X2604524Y-1065524D02*
X2728334Y-1065524D01*
X2728334Y-1065524D02*
X2661667Y-1141714D01*
X2661667Y-1141714D02*
X2690238Y-1141714D01*
X2690238Y-1141714D02*
X2709286Y-1151238D01*
X2709286Y-1151238D02*
X2718810Y-1160762D01*
X2718810Y-1160762D02*
X2728334Y-1179810D01*
X2728334Y-1179810D02*
X2728334Y-1227429D01*
X2728334Y-1227429D02*
X2718810Y-1246476D01*
X2718810Y-1246476D02*
X2709286Y-1256000D01*
X2709286Y-1256000D02*
X2690238Y-1265524D01*
X2690238Y-1265524D02*
X2633095Y-1265524D01*
X2633095Y-1265524D02*
X2614048Y-1256000D01*
X2614048Y-1256000D02*
X2604524Y-1246476D01*
X2823572Y-1265524D02*
X2861667Y-1265524D01*
X2861667Y-1265524D02*
X2880714Y-1256000D01*
X2880714Y-1256000D02*
X2890238Y-1246476D01*
X2890238Y-1246476D02*
X2909286Y-1217905D01*
X2909286Y-1217905D02*
X2918810Y-1179810D01*
X2918810Y-1179810D02*
X2918810Y-1103619D01*
X2918810Y-1103619D02*
X2909286Y-1084571D01*
X2909286Y-1084571D02*
X2899762Y-1075048D01*
X2899762Y-1075048D02*
X2880714Y-1065524D01*
X2880714Y-1065524D02*
X2842619Y-1065524D01*
X2842619Y-1065524D02*
X2823572Y-1075048D01*
X2823572Y-1075048D02*
X2814048Y-1084571D01*
X2814048Y-1084571D02*
X2804524Y-1103619D01*
X2804524Y-1103619D02*
X2804524Y-1151238D01*
X2804524Y-1151238D02*
X2814048Y-1170286D01*
X2814048Y-1170286D02*
X2823572Y-1179810D01*
X2823572Y-1179810D02*
X2842619Y-1189333D01*
X2842619Y-1189333D02*
X2880714Y-1189333D01*
X2880714Y-1189333D02*
X2899762Y-1179810D01*
X2899762Y-1179810D02*
X2909286Y-1170286D01*
X2909286Y-1170286D02*
X2918810Y-1151238D01*
X3090238Y-1132190D02*
X3090238Y-1265524D01*
X3042619Y-1056000D02*
X2995000Y-1198857D01*
X2995000Y-1198857D02*
X3118810Y-1198857D01*
X3185476Y-1065524D02*
X3185476Y-1103619D01*
X3261667Y-1065524D02*
X3261667Y-1103619D01*
X3556905Y-1341714D02*
X3547381Y-1332190D01*
X3547381Y-1332190D02*
X3528334Y-1303619D01*
X3528334Y-1303619D02*
X3518810Y-1284571D01*
X3518810Y-1284571D02*
X3509286Y-1256000D01*
X3509286Y-1256000D02*
X3499762Y-1208381D01*
X3499762Y-1208381D02*
X3499762Y-1170286D01*
X3499762Y-1170286D02*
X3509286Y-1122667D01*
X3509286Y-1122667D02*
X3518810Y-1094095D01*
X3518810Y-1094095D02*
X3528334Y-1075048D01*
X3528334Y-1075048D02*
X3547381Y-1046476D01*
X3547381Y-1046476D02*
X3556905Y-1036952D01*
X3718810Y-1132190D02*
X3718810Y-1265524D01*
X3671191Y-1056000D02*
X3623572Y-1198857D01*
X3623572Y-1198857D02*
X3747381Y-1198857D01*
X3975953Y-1265524D02*
X3975953Y-1065524D01*
X4061667Y-1265524D02*
X4061667Y-1160762D01*
X4061667Y-1160762D02*
X4052143Y-1141714D01*
X4052143Y-1141714D02*
X4033096Y-1132190D01*
X4033096Y-1132190D02*
X4004524Y-1132190D01*
X4004524Y-1132190D02*
X3985476Y-1141714D01*
X3985476Y-1141714D02*
X3975953Y-1151238D01*
X4185476Y-1265524D02*
X4166429Y-1256000D01*
X4166429Y-1256000D02*
X4156905Y-1246476D01*
X4156905Y-1246476D02*
X4147381Y-1227429D01*
X4147381Y-1227429D02*
X4147381Y-1170286D01*
X4147381Y-1170286D02*
X4156905Y-1151238D01*
X4156905Y-1151238D02*
X4166429Y-1141714D01*
X4166429Y-1141714D02*
X4185476Y-1132190D01*
X4185476Y-1132190D02*
X4214048Y-1132190D01*
X4214048Y-1132190D02*
X4233096Y-1141714D01*
X4233096Y-1141714D02*
X4242619Y-1151238D01*
X4242619Y-1151238D02*
X4252143Y-1170286D01*
X4252143Y-1170286D02*
X4252143Y-1227429D01*
X4252143Y-1227429D02*
X4242619Y-1246476D01*
X4242619Y-1246476D02*
X4233096Y-1256000D01*
X4233096Y-1256000D02*
X4214048Y-1265524D01*
X4214048Y-1265524D02*
X4185476Y-1265524D01*
X4366429Y-1265524D02*
X4347381Y-1256000D01*
X4347381Y-1256000D02*
X4337858Y-1236952D01*
X4337858Y-1236952D02*
X4337858Y-1065524D01*
X4518810Y-1256000D02*
X4499762Y-1265524D01*
X4499762Y-1265524D02*
X4461667Y-1265524D01*
X4461667Y-1265524D02*
X4442619Y-1256000D01*
X4442619Y-1256000D02*
X4433096Y-1236952D01*
X4433096Y-1236952D02*
X4433096Y-1160762D01*
X4433096Y-1160762D02*
X4442619Y-1141714D01*
X4442619Y-1141714D02*
X4461667Y-1132190D01*
X4461667Y-1132190D02*
X4499762Y-1132190D01*
X4499762Y-1132190D02*
X4518810Y-1141714D01*
X4518810Y-1141714D02*
X4528334Y-1160762D01*
X4528334Y-1160762D02*
X4528334Y-1179810D01*
X4528334Y-1179810D02*
X4433096Y-1198857D01*
X4604524Y-1256000D02*
X4623572Y-1265524D01*
X4623572Y-1265524D02*
X4661667Y-1265524D01*
X4661667Y-1265524D02*
X4680715Y-1256000D01*
X4680715Y-1256000D02*
X4690239Y-1236952D01*
X4690239Y-1236952D02*
X4690239Y-1227429D01*
X4690239Y-1227429D02*
X4680715Y-1208381D01*
X4680715Y-1208381D02*
X4661667Y-1198857D01*
X4661667Y-1198857D02*
X4633096Y-1198857D01*
X4633096Y-1198857D02*
X4614048Y-1189333D01*
X4614048Y-1189333D02*
X4604524Y-1170286D01*
X4604524Y-1170286D02*
X4604524Y-1160762D01*
X4604524Y-1160762D02*
X4614048Y-1141714D01*
X4614048Y-1141714D02*
X4633096Y-1132190D01*
X4633096Y-1132190D02*
X4661667Y-1132190D01*
X4661667Y-1132190D02*
X4680715Y-1141714D01*
X4756905Y-1341714D02*
X4766429Y-1332190D01*
X4766429Y-1332190D02*
X4785477Y-1303619D01*
X4785477Y-1303619D02*
X4795000Y-1284571D01*
X4795000Y-1284571D02*
X4804524Y-1256000D01*
X4804524Y-1256000D02*
X4814048Y-1208381D01*
X4814048Y-1208381D02*
X4814048Y-1170286D01*
X4814048Y-1170286D02*
X4804524Y-1122667D01*
X4804524Y-1122667D02*
X4795000Y-1094095D01*
X4795000Y-1094095D02*
X4785477Y-1075048D01*
X4785477Y-1075048D02*
X4766429Y-1046476D01*
X4766429Y-1046476D02*
X4756905Y-1036952D01*
M02*
