G04 #@! TF.GenerationSoftware,KiCad,Pcbnew,7.0.2*
G04 #@! TF.CreationDate,2023-06-05T15:13:54+09:00*
G04 #@! TF.ProjectId,sync,73796e63-2e6b-4696-9361-645f70636258,rev?*
G04 #@! TF.SameCoordinates,PX3473bc0PY4c4b400*
G04 #@! TF.FileFunction,Soldermask,Bot*
G04 #@! TF.FilePolarity,Negative*
%FSLAX46Y46*%
G04 Gerber Fmt 4.6, Leading zero omitted, Abs format (unit mm)*
G04 Created by KiCad (PCBNEW 7.0.2) date 2023-06-05 15:13:54*
%MOMM*%
%LPD*%
G01*
G04 APERTURE LIST*
G04 APERTURE END LIST*
G36*
X8424868Y7185450D02*
G01*
X8430586Y7182655D01*
X8432962Y7182278D01*
X8470987Y7162904D01*
X8528377Y7134847D01*
X8609847Y7053377D01*
X8637907Y6995980D01*
X8657276Y6957966D01*
X8657652Y6955592D01*
X8660450Y6949868D01*
X8675000Y6850000D01*
X8675000Y5650000D01*
X8660450Y5550132D01*
X8657652Y5544411D01*
X8657277Y5542038D01*
X8637926Y5504061D01*
X8609847Y5446623D01*
X8528377Y5365153D01*
X8470955Y5337081D01*
X8432965Y5317724D01*
X8430591Y5317349D01*
X8424868Y5314550D01*
X8325000Y5300000D01*
X6875000Y5300000D01*
X6775132Y5314550D01*
X6769410Y5317348D01*
X6767037Y5317723D01*
X6729035Y5337086D01*
X6671623Y5365153D01*
X6590153Y5446623D01*
X6562104Y5503997D01*
X6542723Y5542035D01*
X6542346Y5544412D01*
X6539550Y5550132D01*
X6525000Y5650000D01*
X6525000Y6850000D01*
X6539550Y6949868D01*
X6542345Y6955587D01*
X6542722Y6957963D01*
X6562108Y6996013D01*
X6590153Y7053377D01*
X6671623Y7134847D01*
X6728971Y7162884D01*
X6767034Y7182277D01*
X6769411Y7182654D01*
X6775132Y7185450D01*
X6875000Y7200000D01*
X8325000Y7200000D01*
X8424868Y7185450D01*
G37*
G36*
X7821110Y9695126D02*
G01*
X8009395Y9656432D01*
X8186037Y9580629D01*
X8343804Y9470820D01*
X8476237Y9331501D01*
X8577914Y9168374D01*
X8644673Y8988120D01*
X8673781Y8798117D01*
X8664045Y8606144D01*
X8615865Y8420060D01*
X8531212Y8247484D01*
X8413553Y8095481D01*
X8267705Y7970275D01*
X8099638Y7876990D01*
X7916234Y7819447D01*
X7725000Y7800000D01*
X7722469Y7800000D01*
X7476271Y7800000D01*
X7475000Y7800000D01*
X7378890Y7804874D01*
X7190605Y7843568D01*
X7013963Y7919371D01*
X6856196Y8029180D01*
X6723763Y8168499D01*
X6622086Y8331626D01*
X6555327Y8511880D01*
X6526219Y8701883D01*
X6535955Y8893856D01*
X6584135Y9079940D01*
X6668788Y9252516D01*
X6786447Y9404519D01*
X6932295Y9529725D01*
X7100362Y9623010D01*
X7283766Y9680553D01*
X7475000Y9700000D01*
X7725000Y9700000D01*
X7821110Y9695126D01*
G37*
G36*
X7821110Y12195126D02*
G01*
X8009395Y12156432D01*
X8186037Y12080629D01*
X8343804Y11970820D01*
X8476237Y11831501D01*
X8577914Y11668374D01*
X8644673Y11488120D01*
X8673781Y11298117D01*
X8664045Y11106144D01*
X8615865Y10920060D01*
X8531212Y10747484D01*
X8413553Y10595481D01*
X8267705Y10470275D01*
X8099638Y10376990D01*
X7916234Y10319447D01*
X7725000Y10300000D01*
X7722469Y10300000D01*
X7476271Y10300000D01*
X7475000Y10300000D01*
X7378890Y10304874D01*
X7190605Y10343568D01*
X7013963Y10419371D01*
X6856196Y10529180D01*
X6723763Y10668499D01*
X6622086Y10831626D01*
X6555327Y11011880D01*
X6526219Y11201883D01*
X6535955Y11393856D01*
X6584135Y11579940D01*
X6668788Y11752516D01*
X6786447Y11904519D01*
X6932295Y12029725D01*
X7100362Y12123010D01*
X7283766Y12180553D01*
X7475000Y12200000D01*
X7725000Y12200000D01*
X7821110Y12195126D01*
G37*
G36*
X7821110Y14695126D02*
G01*
X8009395Y14656432D01*
X8186037Y14580629D01*
X8343804Y14470820D01*
X8476237Y14331501D01*
X8577914Y14168374D01*
X8644673Y13988120D01*
X8673781Y13798117D01*
X8664045Y13606144D01*
X8615865Y13420060D01*
X8531212Y13247484D01*
X8413553Y13095481D01*
X8267705Y12970275D01*
X8099638Y12876990D01*
X7916234Y12819447D01*
X7725000Y12800000D01*
X7722469Y12800000D01*
X7476271Y12800000D01*
X7475000Y12800000D01*
X7378890Y12804874D01*
X7190605Y12843568D01*
X7013963Y12919371D01*
X6856196Y13029180D01*
X6723763Y13168499D01*
X6622086Y13331626D01*
X6555327Y13511880D01*
X6526219Y13701883D01*
X6535955Y13893856D01*
X6584135Y14079940D01*
X6668788Y14252516D01*
X6786447Y14404519D01*
X6932295Y14529725D01*
X7100362Y14623010D01*
X7283766Y14680553D01*
X7475000Y14700000D01*
X7725000Y14700000D01*
X7821110Y14695126D01*
G37*
G36*
X34365336Y15931746D02*
G01*
X34543549Y15877686D01*
X34707792Y15789896D01*
X34851751Y15671751D01*
X34969896Y15527792D01*
X35057686Y15363549D01*
X35111746Y15185336D01*
X35130000Y15000000D01*
X35111746Y14814664D01*
X35057686Y14636451D01*
X34969896Y14472208D01*
X34851751Y14328249D01*
X34707792Y14210104D01*
X34543549Y14122314D01*
X34365336Y14068254D01*
X34180000Y14050000D01*
X33994664Y14068254D01*
X33816451Y14122314D01*
X33652208Y14210104D01*
X33508249Y14328249D01*
X33390104Y14472208D01*
X33302314Y14636451D01*
X33248254Y14814664D01*
X33230000Y15000000D01*
X33248254Y15185336D01*
X33302314Y15363549D01*
X33390104Y15527792D01*
X33508249Y15671751D01*
X33652208Y15789896D01*
X33816451Y15877686D01*
X33994664Y15931746D01*
X34180000Y15950000D01*
X34365336Y15931746D01*
G37*
G36*
X36905336Y15931746D02*
G01*
X37083549Y15877686D01*
X37247792Y15789896D01*
X37391751Y15671751D01*
X37509896Y15527792D01*
X37597686Y15363549D01*
X37651746Y15185336D01*
X37670000Y15000000D01*
X37651746Y14814664D01*
X37597686Y14636451D01*
X37509896Y14472208D01*
X37391751Y14328249D01*
X37247792Y14210104D01*
X37083549Y14122314D01*
X36905336Y14068254D01*
X36720000Y14050000D01*
X36534664Y14068254D01*
X36356451Y14122314D01*
X36192208Y14210104D01*
X36048249Y14328249D01*
X35930104Y14472208D01*
X35842314Y14636451D01*
X35788254Y14814664D01*
X35770000Y15000000D01*
X35788254Y15185336D01*
X35842314Y15363549D01*
X35930104Y15527792D01*
X36048249Y15671751D01*
X36192208Y15789896D01*
X36356451Y15877686D01*
X36534664Y15931746D01*
X36720000Y15950000D01*
X36905336Y15931746D01*
G37*
G36*
X39445336Y15931746D02*
G01*
X39623549Y15877686D01*
X39787792Y15789896D01*
X39931751Y15671751D01*
X40049896Y15527792D01*
X40137686Y15363549D01*
X40191746Y15185336D01*
X40210000Y15000000D01*
X40191746Y14814664D01*
X40137686Y14636451D01*
X40049896Y14472208D01*
X39931751Y14328249D01*
X39787792Y14210104D01*
X39623549Y14122314D01*
X39445336Y14068254D01*
X39260000Y14050000D01*
X39074664Y14068254D01*
X38896451Y14122314D01*
X38732208Y14210104D01*
X38588249Y14328249D01*
X38470104Y14472208D01*
X38382314Y14636451D01*
X38328254Y14814664D01*
X38310000Y15000000D01*
X38328254Y15185336D01*
X38382314Y15363549D01*
X38470104Y15527792D01*
X38588249Y15671751D01*
X38732208Y15789896D01*
X38896451Y15877686D01*
X39074664Y15931746D01*
X39260000Y15950000D01*
X39445336Y15931746D01*
G37*
G36*
X42688268Y15942388D02*
G01*
X42720711Y15920711D01*
X42742388Y15888268D01*
X42750000Y15850000D01*
X42750000Y14150000D01*
X42742388Y14111732D01*
X42720711Y14079289D01*
X42688268Y14057612D01*
X42650000Y14050000D01*
X40950000Y14050000D01*
X40911732Y14057612D01*
X40879289Y14079289D01*
X40857612Y14111732D01*
X40850000Y14150000D01*
X40850000Y15850000D01*
X40857612Y15888268D01*
X40879289Y15920711D01*
X40911732Y15942388D01*
X40950000Y15950000D01*
X42650000Y15950000D01*
X42688268Y15942388D01*
G37*
M02*
