G04 #@! TF.GenerationSoftware,KiCad,Pcbnew,7.0.2*
G04 #@! TF.CreationDate,2023-05-31T21:51:21+09:00*
G04 #@! TF.ProjectId,sync,73796e63-2e6b-4696-9361-645f70636258,rev?*
G04 #@! TF.SameCoordinates,PX3473bc0PY4c4b400*
G04 #@! TF.FileFunction,Legend,Top*
G04 #@! TF.FilePolarity,Positive*
%FSLAX46Y46*%
G04 Gerber Fmt 4.6, Leading zero omitted, Abs format (unit mm)*
G04 Created by KiCad (PCBNEW 7.0.2) date 2023-05-31 21:51:21*
%MOMM*%
%LPD*%
G01*
G04 APERTURE LIST*
%ADD10C,0.100000*%
%ADD11C,0.150000*%
%ADD12C,0.120000*%
G04 APERTURE END LIST*
D10*
X23511905Y2787381D02*
X23511905Y3787381D01*
X23511905Y3787381D02*
X23750000Y3787381D01*
X23750000Y3787381D02*
X23892857Y3739762D01*
X23892857Y3739762D02*
X23988095Y3644524D01*
X23988095Y3644524D02*
X24035714Y3549286D01*
X24035714Y3549286D02*
X24083333Y3358810D01*
X24083333Y3358810D02*
X24083333Y3215953D01*
X24083333Y3215953D02*
X24035714Y3025477D01*
X24035714Y3025477D02*
X23988095Y2930239D01*
X23988095Y2930239D02*
X23892857Y2835000D01*
X23892857Y2835000D02*
X23750000Y2787381D01*
X23750000Y2787381D02*
X23511905Y2787381D01*
X25035714Y2787381D02*
X24464286Y2787381D01*
X24750000Y2787381D02*
X24750000Y3787381D01*
X24750000Y3787381D02*
X24654762Y3644524D01*
X24654762Y3644524D02*
X24559524Y3549286D01*
X24559524Y3549286D02*
X24464286Y3501667D01*
X23761905Y14287381D02*
X23761905Y15287381D01*
X23761905Y15287381D02*
X24000000Y15287381D01*
X24000000Y15287381D02*
X24142857Y15239762D01*
X24142857Y15239762D02*
X24238095Y15144524D01*
X24238095Y15144524D02*
X24285714Y15049286D01*
X24285714Y15049286D02*
X24333333Y14858810D01*
X24333333Y14858810D02*
X24333333Y14715953D01*
X24333333Y14715953D02*
X24285714Y14525477D01*
X24285714Y14525477D02*
X24238095Y14430239D01*
X24238095Y14430239D02*
X24142857Y14335000D01*
X24142857Y14335000D02*
X24000000Y14287381D01*
X24000000Y14287381D02*
X23761905Y14287381D01*
X24714286Y15192143D02*
X24761905Y15239762D01*
X24761905Y15239762D02*
X24857143Y15287381D01*
X24857143Y15287381D02*
X25095238Y15287381D01*
X25095238Y15287381D02*
X25190476Y15239762D01*
X25190476Y15239762D02*
X25238095Y15192143D01*
X25238095Y15192143D02*
X25285714Y15096905D01*
X25285714Y15096905D02*
X25285714Y15001667D01*
X25285714Y15001667D02*
X25238095Y14858810D01*
X25238095Y14858810D02*
X24666667Y14287381D01*
X24666667Y14287381D02*
X25285714Y14287381D01*
D11*
X34583333Y12132620D02*
X34535714Y12085000D01*
X34535714Y12085000D02*
X34392857Y12037381D01*
X34392857Y12037381D02*
X34297619Y12037381D01*
X34297619Y12037381D02*
X34154762Y12085000D01*
X34154762Y12085000D02*
X34059524Y12180239D01*
X34059524Y12180239D02*
X34011905Y12275477D01*
X34011905Y12275477D02*
X33964286Y12465953D01*
X33964286Y12465953D02*
X33964286Y12608810D01*
X33964286Y12608810D02*
X34011905Y12799286D01*
X34011905Y12799286D02*
X34059524Y12894524D01*
X34059524Y12894524D02*
X34154762Y12989762D01*
X34154762Y12989762D02*
X34297619Y13037381D01*
X34297619Y13037381D02*
X34392857Y13037381D01*
X34392857Y13037381D02*
X34535714Y12989762D01*
X34535714Y12989762D02*
X34583333Y12942143D01*
X35535714Y12037381D02*
X34964286Y12037381D01*
X35250000Y12037381D02*
X35250000Y13037381D01*
X35250000Y13037381D02*
X35154762Y12894524D01*
X35154762Y12894524D02*
X35059524Y12799286D01*
X35059524Y12799286D02*
X34964286Y12751667D01*
X32333333Y6537381D02*
X32000000Y7013572D01*
X31761905Y6537381D02*
X31761905Y7537381D01*
X31761905Y7537381D02*
X32142857Y7537381D01*
X32142857Y7537381D02*
X32238095Y7489762D01*
X32238095Y7489762D02*
X32285714Y7442143D01*
X32285714Y7442143D02*
X32333333Y7346905D01*
X32333333Y7346905D02*
X32333333Y7204048D01*
X32333333Y7204048D02*
X32285714Y7108810D01*
X32285714Y7108810D02*
X32238095Y7061191D01*
X32238095Y7061191D02*
X32142857Y7013572D01*
X32142857Y7013572D02*
X31761905Y7013572D01*
X33285714Y6537381D02*
X32714286Y6537381D01*
X33000000Y6537381D02*
X33000000Y7537381D01*
X33000000Y7537381D02*
X32904762Y7394524D01*
X32904762Y7394524D02*
X32809524Y7299286D01*
X32809524Y7299286D02*
X32714286Y7251667D01*
X24833333Y6537381D02*
X24500000Y7013572D01*
X24261905Y6537381D02*
X24261905Y7537381D01*
X24261905Y7537381D02*
X24642857Y7537381D01*
X24642857Y7537381D02*
X24738095Y7489762D01*
X24738095Y7489762D02*
X24785714Y7442143D01*
X24785714Y7442143D02*
X24833333Y7346905D01*
X24833333Y7346905D02*
X24833333Y7204048D01*
X24833333Y7204048D02*
X24785714Y7108810D01*
X24785714Y7108810D02*
X24738095Y7061191D01*
X24738095Y7061191D02*
X24642857Y7013572D01*
X24642857Y7013572D02*
X24261905Y7013572D01*
X25214286Y7442143D02*
X25261905Y7489762D01*
X25261905Y7489762D02*
X25357143Y7537381D01*
X25357143Y7537381D02*
X25595238Y7537381D01*
X25595238Y7537381D02*
X25690476Y7489762D01*
X25690476Y7489762D02*
X25738095Y7442143D01*
X25738095Y7442143D02*
X25785714Y7346905D01*
X25785714Y7346905D02*
X25785714Y7251667D01*
X25785714Y7251667D02*
X25738095Y7108810D01*
X25738095Y7108810D02*
X25166667Y6537381D01*
X25166667Y6537381D02*
X25785714Y6537381D01*
X43592619Y14666667D02*
X44306904Y14666667D01*
X44306904Y14666667D02*
X44449761Y14619048D01*
X44449761Y14619048D02*
X44545000Y14523810D01*
X44545000Y14523810D02*
X44592619Y14380953D01*
X44592619Y14380953D02*
X44592619Y14285715D01*
X44592619Y15666667D02*
X44592619Y15095239D01*
X44592619Y15380953D02*
X43592619Y15380953D01*
X43592619Y15380953D02*
X43735476Y15285715D01*
X43735476Y15285715D02*
X43830714Y15190477D01*
X43830714Y15190477D02*
X43878333Y15095239D01*
X2462619Y9666667D02*
X3176904Y9666667D01*
X3176904Y9666667D02*
X3319761Y9619048D01*
X3319761Y9619048D02*
X3415000Y9523810D01*
X3415000Y9523810D02*
X3462619Y9380953D01*
X3462619Y9380953D02*
X3462619Y9285715D01*
X2557857Y10095239D02*
X2510238Y10142858D01*
X2510238Y10142858D02*
X2462619Y10238096D01*
X2462619Y10238096D02*
X2462619Y10476191D01*
X2462619Y10476191D02*
X2510238Y10571429D01*
X2510238Y10571429D02*
X2557857Y10619048D01*
X2557857Y10619048D02*
X2653095Y10666667D01*
X2653095Y10666667D02*
X2748333Y10666667D01*
X2748333Y10666667D02*
X2891190Y10619048D01*
X2891190Y10619048D02*
X3462619Y10047620D01*
X3462619Y10047620D02*
X3462619Y10666667D01*
X31666666Y12037381D02*
X31666666Y11323096D01*
X31666666Y11323096D02*
X31619047Y11180239D01*
X31619047Y11180239D02*
X31523809Y11085000D01*
X31523809Y11085000D02*
X31380952Y11037381D01*
X31380952Y11037381D02*
X31285714Y11037381D01*
X32142857Y11037381D02*
X32142857Y12037381D01*
X32142857Y12037381D02*
X32523809Y12037381D01*
X32523809Y12037381D02*
X32619047Y11989762D01*
X32619047Y11989762D02*
X32666666Y11942143D01*
X32666666Y11942143D02*
X32714285Y11846905D01*
X32714285Y11846905D02*
X32714285Y11704048D01*
X32714285Y11704048D02*
X32666666Y11608810D01*
X32666666Y11608810D02*
X32619047Y11561191D01*
X32619047Y11561191D02*
X32523809Y11513572D01*
X32523809Y11513572D02*
X32142857Y11513572D01*
X33666666Y11037381D02*
X33095238Y11037381D01*
X33380952Y11037381D02*
X33380952Y12037381D01*
X33380952Y12037381D02*
X33285714Y11894524D01*
X33285714Y11894524D02*
X33190476Y11799286D01*
X33190476Y11799286D02*
X33095238Y11751667D01*
X37238095Y4137381D02*
X37238095Y3327858D01*
X37238095Y3327858D02*
X37285714Y3232620D01*
X37285714Y3232620D02*
X37333333Y3185000D01*
X37333333Y3185000D02*
X37428571Y3137381D01*
X37428571Y3137381D02*
X37619047Y3137381D01*
X37619047Y3137381D02*
X37714285Y3185000D01*
X37714285Y3185000D02*
X37761904Y3232620D01*
X37761904Y3232620D02*
X37809523Y3327858D01*
X37809523Y3327858D02*
X37809523Y4137381D01*
X38809523Y3137381D02*
X38238095Y3137381D01*
X38523809Y3137381D02*
X38523809Y4137381D01*
X38523809Y4137381D02*
X38428571Y3994524D01*
X38428571Y3994524D02*
X38333333Y3899286D01*
X38333333Y3899286D02*
X38238095Y3851667D01*
D10*
X25360000Y4900000D02*
X30640000Y4900000D01*
X25360000Y4500000D02*
X25360000Y4900000D01*
X25360000Y2100000D02*
X25360000Y2500000D01*
X26750000Y4900000D02*
X26750000Y4500000D01*
X26750000Y2500000D02*
X26750000Y2100000D01*
X30640000Y4900000D02*
X30640000Y4500000D01*
X30640000Y2500000D02*
X30640000Y2100000D01*
X30640000Y2100000D02*
X25360000Y2100000D01*
X25860000Y14900000D02*
X31140000Y14900000D01*
X25860000Y14500000D02*
X25860000Y14900000D01*
X25860000Y12100000D02*
X25860000Y12500000D01*
X27250000Y14900000D02*
X27250000Y14500000D01*
X27250000Y12500000D02*
X27250000Y12100000D01*
X31140000Y14900000D02*
X31140000Y14500000D01*
X31140000Y12500000D02*
X31140000Y12100000D01*
X31140000Y12100000D02*
X25860000Y12100000D01*
D12*
X37396267Y10740000D02*
X37103733Y10740000D01*
X37396267Y11760000D02*
X37103733Y11760000D01*
X29977500Y6512742D02*
X29977500Y6987258D01*
X31022500Y6512742D02*
X31022500Y6987258D01*
X26477500Y6512742D02*
X26477500Y6987258D01*
X27522500Y6512742D02*
X27522500Y6987258D01*
X43130000Y16330000D02*
X43130000Y15000000D01*
X41800000Y16330000D02*
X43130000Y16330000D01*
X40530000Y16330000D02*
X32850000Y16330000D01*
X40530000Y16330000D02*
X40530000Y13670000D01*
X32850000Y16330000D02*
X32850000Y13670000D01*
X40530000Y13670000D02*
X32850000Y13670000D01*
X4090000Y3640000D02*
X16910000Y3640000D01*
X16910000Y3640000D02*
X16910000Y16360000D01*
X14610000Y4750000D02*
X14610000Y15250000D01*
X16910000Y4750000D02*
X14610000Y4750000D01*
X4090000Y4860000D02*
X4090000Y3640000D01*
X6990000Y4860000D02*
X4090000Y4860000D01*
X6990000Y5140000D02*
X6990000Y4860000D01*
X9600000Y5700000D02*
X9600000Y3640000D01*
X13010000Y5700000D02*
X9600000Y5700000D01*
X6000000Y5850000D02*
X6000000Y6650000D01*
X6400000Y6250000D02*
X6000000Y5850000D01*
X6000000Y6650000D02*
X6400000Y6250000D01*
X9600000Y6800000D02*
X13010000Y6800000D01*
X13010000Y6800000D02*
X13010000Y5700000D01*
X9600000Y7300000D02*
X9600000Y6800000D01*
X14610000Y7300000D02*
X9600000Y7300000D01*
X11000000Y9200000D02*
X11000000Y10800000D01*
X12800000Y9200000D02*
X11000000Y9200000D01*
X11000000Y10800000D02*
X12800000Y10800000D01*
X12800000Y10800000D02*
X12800000Y9200000D01*
X9600000Y12700000D02*
X9600000Y13200000D01*
X14610000Y12700000D02*
X9600000Y12700000D01*
X9600000Y13200000D02*
X13010000Y13200000D01*
X13010000Y13200000D02*
X13010000Y14300000D01*
X9600000Y14300000D02*
X9600000Y16360000D01*
X13010000Y14300000D02*
X9600000Y14300000D01*
X4090000Y15140000D02*
X6990000Y15140000D01*
X6990000Y15140000D02*
X6990000Y14860000D01*
X14610000Y15250000D02*
X16910000Y15250000D01*
X4090000Y16360000D02*
X4090000Y15140000D01*
X16910000Y16360000D02*
X4090000Y16360000D01*
X26700000Y10750000D02*
X30800000Y10750000D01*
X26700000Y8750000D02*
X26700000Y10750000D01*
X27150000Y8250000D02*
X27750000Y8250000D01*
X27450000Y8550000D02*
X27150000Y8250000D01*
X27450000Y8550000D02*
X27750000Y8250000D01*
X30800000Y10750000D02*
X30800000Y8750000D01*
X30800000Y8750000D02*
X26700000Y8750000D01*
X38000000Y4440000D02*
X41450000Y4440000D01*
X38000000Y4440000D02*
X36050000Y4440000D01*
X38000000Y9560000D02*
X39950000Y9560000D01*
X38000000Y9560000D02*
X36050000Y9560000D01*
M02*
