G04 #@! TF.GenerationSoftware,KiCad,Pcbnew,7.0.2*
G04 #@! TF.CreationDate,2023-06-05T15:13:54+09:00*
G04 #@! TF.ProjectId,sync,73796e63-2e6b-4696-9361-645f70636258,rev?*
G04 #@! TF.SameCoordinates,PX3473bc0PY4c4b400*
G04 #@! TF.FileFunction,Copper,L2,Bot*
G04 #@! TF.FilePolarity,Positive*
%FSLAX46Y46*%
G04 Gerber Fmt 4.6, Leading zero omitted, Abs format (unit mm)*
G04 Created by KiCad (PCBNEW 7.0.2) date 2023-06-05 15:13:54*
%MOMM*%
%LPD*%
G01*
G04 APERTURE LIST*
G04 Aperture macros list*
%AMRoundRect*
0 Rectangle with rounded corners*
0 $1 Rounding radius*
0 $2 $3 $4 $5 $6 $7 $8 $9 X,Y pos of 4 corners*
0 Add a 4 corners polygon primitive as box body*
4,1,4,$2,$3,$4,$5,$6,$7,$8,$9,$2,$3,0*
0 Add four circle primitives for the rounded corners*
1,1,$1+$1,$2,$3*
1,1,$1+$1,$4,$5*
1,1,$1+$1,$6,$7*
1,1,$1+$1,$8,$9*
0 Add four rect primitives between the rounded corners*
20,1,$1+$1,$2,$3,$4,$5,0*
20,1,$1+$1,$4,$5,$6,$7,0*
20,1,$1+$1,$6,$7,$8,$9,0*
20,1,$1+$1,$8,$9,$2,$3,0*%
G04 Aperture macros list end*
G04 #@! TA.AperFunction,ComponentPad*
%ADD10R,1.700000X1.700000*%
G04 #@! TD*
G04 #@! TA.AperFunction,ComponentPad*
%ADD11O,1.700000X1.700000*%
G04 #@! TD*
G04 #@! TA.AperFunction,ComponentPad*
%ADD12RoundRect,0.250000X0.725000X-0.600000X0.725000X0.600000X-0.725000X0.600000X-0.725000X-0.600000X0*%
G04 #@! TD*
G04 #@! TA.AperFunction,ComponentPad*
%ADD13O,1.950000X1.700000*%
G04 #@! TD*
G04 #@! TA.AperFunction,ViaPad*
%ADD14C,0.800000*%
G04 #@! TD*
G04 #@! TA.AperFunction,Conductor*
%ADD15C,0.250000*%
G04 #@! TD*
G04 APERTURE END LIST*
D10*
X41800000Y15000000D03*
D11*
X39260000Y15000000D03*
X36720000Y15000000D03*
X34180000Y15000000D03*
D12*
X7600000Y6250000D03*
D13*
X7600000Y8750000D03*
X7600000Y11250000D03*
X7600000Y13750000D03*
D14*
X43250000Y10000000D03*
X43750000Y17750000D03*
X34250000Y10500000D03*
X43500000Y3000000D03*
X30000000Y17750000D03*
X37000000Y17750000D03*
X34000000Y3000000D03*
D15*
X5500000Y10750000D02*
X6000000Y11250000D01*
X5500000Y7000000D02*
X5500000Y10750000D01*
X6000000Y11250000D02*
X7600000Y11250000D01*
X6250000Y6250000D02*
X5500000Y7000000D01*
X7600000Y6250000D02*
X6250000Y6250000D01*
G04 #@! TA.AperFunction,Conductor*
G36*
X44346288Y18481046D02*
G01*
X44427070Y18427070D01*
X44481046Y18346288D01*
X44500000Y18251000D01*
X44500000Y2499000D01*
X44481046Y2403712D01*
X44427070Y2322930D01*
X44346288Y2268954D01*
X44251000Y2250000D01*
X29499000Y2250000D01*
X29403712Y2268954D01*
X29322930Y2322930D01*
X29268954Y2403712D01*
X29250000Y2499000D01*
X29250000Y14750000D01*
X32849363Y14750000D01*
X32906567Y14536514D01*
X33006400Y14322421D01*
X33141889Y14128923D01*
X33308922Y13961890D01*
X33502420Y13826401D01*
X33716508Y13726570D01*
X33930000Y13669366D01*
X33930000Y14564499D01*
X34037685Y14515320D01*
X34144237Y14500000D01*
X34215763Y14500000D01*
X34322315Y14515320D01*
X34430000Y14564499D01*
X34430000Y13669366D01*
X34643491Y13726570D01*
X34857579Y13826401D01*
X35051077Y13961890D01*
X35218109Y14128922D01*
X35238886Y14158594D01*
X35309067Y14225779D01*
X35399616Y14260993D01*
X35496748Y14258874D01*
X35585675Y14219747D01*
X35628127Y14175909D01*
X35630303Y14177912D01*
X35796759Y13997095D01*
X35974425Y13858810D01*
X36095075Y13793519D01*
X36172426Y13751658D01*
X36385365Y13678556D01*
X36607431Y13641500D01*
X36832569Y13641500D01*
X37054635Y13678556D01*
X37267574Y13751658D01*
X37465576Y13858811D01*
X37643240Y13997094D01*
X37795722Y14162732D01*
X37795721Y14162732D01*
X37806806Y14174772D01*
X37885288Y14232040D01*
X37979711Y14254915D01*
X38075701Y14239915D01*
X38158644Y14189322D01*
X38173194Y14174772D01*
X38336759Y13997095D01*
X38514425Y13858810D01*
X38635075Y13793519D01*
X38712426Y13751658D01*
X38925365Y13678556D01*
X39147431Y13641500D01*
X39372569Y13641500D01*
X39594635Y13678556D01*
X39807574Y13751658D01*
X40005576Y13858811D01*
X40138471Y13962249D01*
X40225305Y14005818D01*
X40322206Y14012841D01*
X40414418Y13982247D01*
X40487903Y13918694D01*
X40490743Y13914974D01*
X40499111Y13903796D01*
X40586739Y13786739D01*
X40703796Y13699111D01*
X40840799Y13648011D01*
X40901362Y13641500D01*
X40908034Y13641500D01*
X42691966Y13641500D01*
X42698638Y13641500D01*
X42759201Y13648011D01*
X42896204Y13699111D01*
X43013261Y13786739D01*
X43100889Y13903796D01*
X43151989Y14040799D01*
X43158500Y14101362D01*
X43158500Y15898638D01*
X43151989Y15959201D01*
X43100889Y16096204D01*
X43013261Y16213261D01*
X42896204Y16300889D01*
X42896203Y16300890D01*
X42759200Y16351990D01*
X42705276Y16357787D01*
X42705264Y16357788D01*
X42698638Y16358500D01*
X40901362Y16358500D01*
X40894736Y16357788D01*
X40894723Y16357787D01*
X40840799Y16351990D01*
X40703796Y16300890D01*
X40586738Y16213261D01*
X40490743Y16085027D01*
X40418465Y16020104D01*
X40326844Y15987782D01*
X40229828Y15992983D01*
X40142188Y16034914D01*
X40138469Y16037753D01*
X40005574Y16141191D01*
X39807578Y16248340D01*
X39807577Y16248341D01*
X39807574Y16248342D01*
X39594635Y16321444D01*
X39594634Y16321445D01*
X39594632Y16321445D01*
X39372569Y16358500D01*
X39147431Y16358500D01*
X38925367Y16321445D01*
X38865493Y16300890D01*
X38712426Y16248342D01*
X38712424Y16248342D01*
X38712421Y16248340D01*
X38514425Y16141191D01*
X38336758Y16002906D01*
X38173194Y15825229D01*
X38094712Y15767961D01*
X38000288Y15745086D01*
X37904298Y15760086D01*
X37821356Y15810679D01*
X37806806Y15825229D01*
X37643241Y16002906D01*
X37465574Y16141191D01*
X37267578Y16248340D01*
X37267577Y16248341D01*
X37267574Y16248342D01*
X37054635Y16321444D01*
X37054634Y16321445D01*
X37054632Y16321445D01*
X36832569Y16358500D01*
X36607431Y16358500D01*
X36385367Y16321445D01*
X36325493Y16300890D01*
X36172426Y16248342D01*
X36172424Y16248342D01*
X36172421Y16248340D01*
X35974425Y16141191D01*
X35796759Y16002906D01*
X35630303Y15822088D01*
X35627986Y15824221D01*
X35583309Y15778618D01*
X35493936Y15740520D01*
X35396786Y15739524D01*
X35306650Y15775782D01*
X35238889Y15841403D01*
X35218109Y15871079D01*
X35051080Y16038109D01*
X34857579Y16173600D01*
X34643486Y16273433D01*
X34430000Y16330637D01*
X34430000Y15435502D01*
X34322315Y15484680D01*
X34215763Y15500000D01*
X34144237Y15500000D01*
X34037685Y15484680D01*
X33930000Y15435502D01*
X33930000Y16330636D01*
X33929999Y16330637D01*
X33716508Y16273432D01*
X33502426Y16173603D01*
X33308923Y16038111D01*
X33141889Y15871077D01*
X33006397Y15677574D01*
X32906568Y15463492D01*
X32849363Y15250001D01*
X32849364Y15250000D01*
X33746314Y15250000D01*
X33720507Y15209844D01*
X33680000Y15071889D01*
X33680000Y14928111D01*
X33720507Y14790156D01*
X33746314Y14750000D01*
X32849363Y14750000D01*
X29250000Y14750000D01*
X29250000Y18251000D01*
X29268954Y18346288D01*
X29322930Y18427070D01*
X29403712Y18481046D01*
X29499000Y18500000D01*
X44251000Y18500000D01*
X44346288Y18481046D01*
G37*
G04 #@! TD.AperFunction*
M02*
