G04 #@! TF.GenerationSoftware,KiCad,Pcbnew,7.0.2*
G04 #@! TF.CreationDate,2023-05-31T21:51:21+09:00*
G04 #@! TF.ProjectId,sync,73796e63-2e6b-4696-9361-645f70636258,rev?*
G04 #@! TF.SameCoordinates,PX3473bc0PY4c4b400*
G04 #@! TF.FileFunction,Copper,L1,Top*
G04 #@! TF.FilePolarity,Positive*
%FSLAX46Y46*%
G04 Gerber Fmt 4.6, Leading zero omitted, Abs format (unit mm)*
G04 Created by KiCad (PCBNEW 7.0.2) date 2023-05-31 21:51:21*
%MOMM*%
%LPD*%
G01*
G04 APERTURE LIST*
G04 Aperture macros list*
%AMRoundRect*
0 Rectangle with rounded corners*
0 $1 Rounding radius*
0 $2 $3 $4 $5 $6 $7 $8 $9 X,Y pos of 4 corners*
0 Add a 4 corners polygon primitive as box body*
4,1,4,$2,$3,$4,$5,$6,$7,$8,$9,$2,$3,0*
0 Add four circle primitives for the rounded corners*
1,1,$1+$1,$2,$3*
1,1,$1+$1,$4,$5*
1,1,$1+$1,$6,$7*
1,1,$1+$1,$8,$9*
0 Add four rect primitives between the rounded corners*
20,1,$1+$1,$2,$3,$4,$5,0*
20,1,$1+$1,$4,$5,$6,$7,0*
20,1,$1+$1,$6,$7,$8,$9,0*
20,1,$1+$1,$8,$9,$2,$3,0*%
G04 Aperture macros list end*
G04 #@! TA.AperFunction,SMDPad,CuDef*
%ADD10RoundRect,0.380000X-0.380000X-0.460000X0.380000X-0.460000X0.380000X0.460000X-0.380000X0.460000X0*%
G04 #@! TD*
G04 #@! TA.AperFunction,SMDPad,CuDef*
%ADD11RoundRect,0.237500X0.300000X0.237500X-0.300000X0.237500X-0.300000X-0.237500X0.300000X-0.237500X0*%
G04 #@! TD*
G04 #@! TA.AperFunction,SMDPad,CuDef*
%ADD12RoundRect,0.200000X0.275000X-0.200000X0.275000X0.200000X-0.275000X0.200000X-0.275000X-0.200000X0*%
G04 #@! TD*
G04 #@! TA.AperFunction,ComponentPad*
%ADD13R,1.700000X1.700000*%
G04 #@! TD*
G04 #@! TA.AperFunction,ComponentPad*
%ADD14O,1.700000X1.700000*%
G04 #@! TD*
G04 #@! TA.AperFunction,ComponentPad*
%ADD15RoundRect,0.250000X0.725000X-0.600000X0.725000X0.600000X-0.725000X0.600000X-0.725000X-0.600000X0*%
G04 #@! TD*
G04 #@! TA.AperFunction,ComponentPad*
%ADD16O,1.950000X1.700000*%
G04 #@! TD*
G04 #@! TA.AperFunction,SMDPad,CuDef*
%ADD17R,1.000000X1.500000*%
G04 #@! TD*
G04 #@! TA.AperFunction,SMDPad,CuDef*
%ADD18RoundRect,0.150000X0.725000X0.150000X-0.725000X0.150000X-0.725000X-0.150000X0.725000X-0.150000X0*%
G04 #@! TD*
G04 #@! TA.AperFunction,ViaPad*
%ADD19C,0.800000*%
G04 #@! TD*
G04 #@! TA.AperFunction,Conductor*
%ADD20C,0.250000*%
G04 #@! TD*
G04 #@! TA.AperFunction,Conductor*
%ADD21C,0.500000*%
G04 #@! TD*
G04 #@! TA.AperFunction,Conductor*
%ADD22C,0.200000*%
G04 #@! TD*
G04 APERTURE END LIST*
D10*
X26120000Y3500000D03*
X29880000Y3500000D03*
X26620000Y13500000D03*
X30380000Y13500000D03*
D11*
X38112500Y11250000D03*
X36387500Y11250000D03*
D12*
X30500000Y5925000D03*
X30500000Y7575000D03*
X27000000Y5925000D03*
X27000000Y7575000D03*
D13*
X41800000Y15000000D03*
D14*
X39260000Y15000000D03*
X36720000Y15000000D03*
X34180000Y15000000D03*
D15*
X7600000Y6250000D03*
D16*
X7600000Y8750000D03*
X7600000Y11250000D03*
X7600000Y13750000D03*
D17*
X27450000Y9750000D03*
X28750000Y9750000D03*
X30050000Y9750000D03*
D18*
X40575000Y5095000D03*
X40575000Y6365000D03*
X40575000Y7635000D03*
X40575000Y8905000D03*
X35425000Y8905000D03*
X35425000Y7635000D03*
X35425000Y6365000D03*
X35425000Y5095000D03*
D19*
X37000000Y17750000D03*
X30000000Y17750000D03*
X43250000Y10000000D03*
X43750000Y17750000D03*
X34250000Y10500000D03*
X43500000Y3000000D03*
X32000000Y3000000D03*
D20*
X32000000Y3000000D02*
X31500000Y3500000D01*
X31500000Y3500000D02*
X29880000Y3500000D01*
D21*
X36720000Y13780000D02*
X36720000Y15000000D01*
X38500000Y12000000D02*
X36720000Y13780000D01*
X38500000Y9250000D02*
X38500000Y12000000D01*
X38000000Y8750000D02*
X38500000Y9250000D01*
X38000000Y7500000D02*
X38000000Y8750000D01*
D22*
X26620000Y11870000D02*
X26500000Y11750000D01*
X26620000Y13500000D02*
X26620000Y11870000D01*
X26500000Y11750000D02*
X8100000Y11750000D01*
X26750000Y11750000D02*
X26500000Y11750000D01*
X26120000Y5045000D02*
X26120000Y3500000D01*
X27000000Y5925000D02*
X26120000Y5045000D01*
D20*
X34250000Y11750000D02*
X34250000Y10500000D01*
X32500000Y13500000D02*
X34250000Y11750000D01*
X30380000Y13500000D02*
X32500000Y13500000D01*
D22*
X28750000Y9750000D02*
X28750000Y11750000D01*
X31500000Y11750000D02*
X28750000Y11750000D01*
X28750000Y11750000D02*
X26750000Y11750000D01*
D20*
X30050000Y8275000D02*
X30500000Y7825000D01*
X30050000Y9750000D02*
X30050000Y8275000D01*
X27450000Y9750000D02*
X27450000Y8025000D01*
X27450000Y8025000D02*
X27000000Y7575000D01*
D22*
X27120000Y5805000D02*
X27000000Y5925000D01*
X24825000Y5925000D02*
X22000000Y8750000D01*
X27150000Y5925000D02*
X24825000Y5925000D01*
X22000000Y8750000D02*
X7600000Y8750000D01*
X27325000Y5750000D02*
X27150000Y5925000D01*
X32500000Y5750000D02*
X27325000Y5750000D01*
X33115000Y6365000D02*
X32500000Y5750000D01*
X35425000Y6365000D02*
X33115000Y6365000D01*
X8100000Y11750000D02*
X7600000Y11250000D01*
X33250000Y10000000D02*
X31500000Y11750000D01*
X33250000Y8000000D02*
X33250000Y10000000D01*
X33615000Y7635000D02*
X33250000Y8000000D01*
X35425000Y7635000D02*
X33615000Y7635000D01*
D21*
X38000000Y6250000D02*
X38000000Y7500000D01*
X40575000Y6365000D02*
X38115000Y6365000D01*
X35425000Y5095000D02*
X37095000Y5095000D01*
X38135000Y7635000D02*
X38000000Y7500000D01*
X37095000Y5095000D02*
X38000000Y6000000D01*
X38000000Y6000000D02*
X38000000Y6250000D01*
X40575000Y7635000D02*
X38135000Y7635000D01*
X38115000Y6365000D02*
X38000000Y6250000D01*
D20*
X40575000Y12175000D02*
X39260000Y13490000D01*
X40575000Y8905000D02*
X40575000Y12175000D01*
X39260000Y13490000D02*
X39260000Y15000000D01*
X6250000Y13750000D02*
X7600000Y13750000D01*
X5500000Y9500000D02*
X5500000Y13000000D01*
X6250000Y8750000D02*
X5500000Y9500000D01*
X5500000Y13000000D02*
X6250000Y13750000D01*
X7600000Y8750000D02*
X6250000Y8750000D01*
G04 #@! TA.AperFunction,Conductor*
G36*
X44346288Y18481046D02*
G01*
X44427070Y18427070D01*
X44481046Y18346288D01*
X44500000Y18251000D01*
X44500000Y2499000D01*
X44481046Y2403712D01*
X44427070Y2322930D01*
X44346288Y2268954D01*
X44251000Y2250000D01*
X31251913Y2250000D01*
X31156625Y2268954D01*
X31075843Y2322930D01*
X31021867Y2403712D01*
X31002913Y2499000D01*
X31021867Y2594288D01*
X31028841Y2609634D01*
X31090890Y2734744D01*
X31137086Y2920505D01*
X31139713Y2959242D01*
X31140000Y2967699D01*
X31140000Y4032302D01*
X31139713Y4040759D01*
X31137086Y4079496D01*
X31090890Y4265254D01*
X31060362Y4326810D01*
X30056069Y3322517D01*
X29975287Y3268541D01*
X29879999Y3249587D01*
X29784711Y3268541D01*
X29703929Y3322517D01*
X29703867Y3322580D01*
X29702454Y3323994D01*
X29648506Y3404794D01*
X29629586Y3500089D01*
X29648574Y3595371D01*
X29702516Y3676071D01*
X30733762Y4707318D01*
X30727803Y4743668D01*
X30731091Y4840767D01*
X30771288Y4929217D01*
X30842272Y4995551D01*
X30899446Y5021678D01*
X30903645Y5022987D01*
X30903649Y5022987D01*
X31067913Y5074173D01*
X31119881Y5105590D01*
X31211233Y5138665D01*
X31248699Y5141500D01*
X32443801Y5141500D01*
X32476299Y5139370D01*
X32479104Y5139001D01*
X32500000Y5136250D01*
X32537286Y5141159D01*
X32539873Y5141499D01*
X32539881Y5141500D01*
X32539885Y5141500D01*
X32639456Y5154609D01*
X32658851Y5157162D01*
X32806876Y5218476D01*
X32902072Y5291523D01*
X32902071Y5291523D01*
X32933983Y5316009D01*
X32933984Y5316012D01*
X32933987Y5316013D01*
X32948543Y5334984D01*
X32970008Y5359461D01*
X33294118Y5683570D01*
X33374901Y5737546D01*
X33470188Y5756500D01*
X33831240Y5756500D01*
X33926528Y5737546D01*
X34007310Y5683570D01*
X34061286Y5602788D01*
X34080240Y5507500D01*
X34070353Y5438034D01*
X34069596Y5435425D01*
X34044438Y5348833D01*
X34044437Y5348831D01*
X34044438Y5348831D01*
X34041500Y5311502D01*
X34041500Y4878498D01*
X34041882Y4873634D01*
X34041883Y4873630D01*
X34044438Y4841166D01*
X34072764Y4743668D01*
X34090855Y4681399D01*
X34175547Y4538193D01*
X34293193Y4420547D01*
X34436399Y4335855D01*
X34561317Y4299564D01*
X34596165Y4289439D01*
X34596169Y4289438D01*
X34633498Y4286500D01*
X34638395Y4286500D01*
X36211605Y4286500D01*
X36216502Y4286500D01*
X36253831Y4289438D01*
X36253833Y4289439D01*
X36253836Y4289439D01*
X36381792Y4326613D01*
X36451260Y4336500D01*
X37021600Y4336500D01*
X37057688Y4333871D01*
X37072789Y4331659D01*
X37117285Y4335553D01*
X37138605Y4336484D01*
X37124702Y4336079D01*
X37131926Y4336500D01*
X37139180Y4336500D01*
X37168506Y4339929D01*
X37175691Y4340663D01*
X37249426Y4347113D01*
X37249428Y4347114D01*
X37260506Y4348083D01*
X37260658Y4348117D01*
X37271107Y4351921D01*
X37271113Y4351921D01*
X37340718Y4377256D01*
X37347461Y4379600D01*
X37417738Y4402886D01*
X37417740Y4402888D01*
X37428317Y4406392D01*
X37428429Y4406446D01*
X37437732Y4412565D01*
X37499607Y4453263D01*
X37505633Y4457103D01*
X37568651Y4495970D01*
X37568652Y4495972D01*
X37578133Y4501819D01*
X37578231Y4501899D01*
X37585870Y4509997D01*
X37585874Y4509999D01*
X37636696Y4563869D01*
X37641674Y4568995D01*
X38484447Y5411768D01*
X38511819Y5435420D01*
X38524058Y5444531D01*
X38552782Y5478766D01*
X38567863Y5495159D01*
X38557636Y5484360D01*
X38562451Y5489772D01*
X38567580Y5494899D01*
X38578414Y5508601D01*
X38581053Y5511938D01*
X38655022Y5574928D01*
X38747465Y5604816D01*
X38776373Y5606500D01*
X38945350Y5606500D01*
X39040638Y5587546D01*
X39121420Y5533570D01*
X39175396Y5452788D01*
X39194350Y5357500D01*
X39193583Y5337969D01*
X39191500Y5311502D01*
X39191500Y4878498D01*
X39191882Y4873634D01*
X39191883Y4873630D01*
X39194438Y4841166D01*
X39222764Y4743668D01*
X39240855Y4681399D01*
X39325547Y4538193D01*
X39443193Y4420547D01*
X39586399Y4335855D01*
X39711317Y4299564D01*
X39746165Y4289439D01*
X39746169Y4289438D01*
X39783498Y4286500D01*
X39788395Y4286500D01*
X41361605Y4286500D01*
X41366502Y4286500D01*
X41403831Y4289438D01*
X41563601Y4335855D01*
X41706807Y4420547D01*
X41824453Y4538193D01*
X41909145Y4681399D01*
X41955562Y4841169D01*
X41958500Y4878498D01*
X41958500Y5311502D01*
X41955562Y5348831D01*
X41953043Y5357500D01*
X41930404Y5435425D01*
X41909145Y5508601D01*
X41853167Y5603253D01*
X41820978Y5694914D01*
X41826316Y5791922D01*
X41853166Y5856746D01*
X41909145Y5951399D01*
X41955562Y6111169D01*
X41958500Y6148498D01*
X41958500Y6581502D01*
X41955562Y6618831D01*
X41909145Y6778601D01*
X41853167Y6873253D01*
X41820978Y6964914D01*
X41826316Y7061922D01*
X41853166Y7126746D01*
X41909145Y7221399D01*
X41955562Y7381169D01*
X41958500Y7418498D01*
X41958500Y7851502D01*
X41955562Y7888831D01*
X41944528Y7926809D01*
X41923264Y8000001D01*
X41909145Y8048601D01*
X41853167Y8143253D01*
X41820978Y8234914D01*
X41826316Y8331922D01*
X41853166Y8396746D01*
X41909145Y8491399D01*
X41955562Y8651169D01*
X41958500Y8688498D01*
X41958500Y9121502D01*
X41955562Y9158831D01*
X41909145Y9318601D01*
X41824453Y9461807D01*
X41706807Y9579453D01*
X41563601Y9664145D01*
X41563598Y9664146D01*
X41388031Y9715153D01*
X41301814Y9759939D01*
X41239299Y9834310D01*
X41210004Y9926942D01*
X41208500Y9954266D01*
X41208500Y12077569D01*
X41211127Y12101368D01*
X41209896Y12140538D01*
X41208623Y12181060D01*
X41208500Y12188881D01*
X41208500Y12207020D01*
X41208500Y12214856D01*
X41207516Y12222636D01*
X41207360Y12225123D01*
X41206991Y12232954D01*
X41206840Y12237759D01*
X41205674Y12274889D01*
X41202721Y12285052D01*
X41194799Y12323306D01*
X41193474Y12333797D01*
X41179327Y12369526D01*
X41171738Y12391693D01*
X41161018Y12428593D01*
X41155632Y12437701D01*
X41138446Y12472782D01*
X41134552Y12482617D01*
X41111974Y12513692D01*
X41099093Y12533302D01*
X41079542Y12566362D01*
X41072055Y12573849D01*
X41046692Y12603546D01*
X41040472Y12612107D01*
X41010875Y12636592D01*
X40993526Y12652379D01*
X40082096Y13563810D01*
X40028120Y13644591D01*
X40009166Y13739879D01*
X40028120Y13835167D01*
X40082097Y13915949D01*
X40105211Y13936362D01*
X40138474Y13962252D01*
X40225308Y14005819D01*
X40322209Y14012841D01*
X40414421Y13982246D01*
X40487905Y13918692D01*
X40490743Y13914974D01*
X40532786Y13858811D01*
X40586739Y13786739D01*
X40703796Y13699111D01*
X40840799Y13648011D01*
X40901362Y13641500D01*
X40908034Y13641500D01*
X42691966Y13641500D01*
X42698638Y13641500D01*
X42759201Y13648011D01*
X42896204Y13699111D01*
X43013261Y13786739D01*
X43100889Y13903796D01*
X43151989Y14040799D01*
X43158500Y14101362D01*
X43158500Y15898638D01*
X43151989Y15959201D01*
X43100889Y16096204D01*
X43013261Y16213261D01*
X42896204Y16300889D01*
X42896203Y16300890D01*
X42759200Y16351990D01*
X42705276Y16357787D01*
X42705264Y16357788D01*
X42698638Y16358500D01*
X40901362Y16358500D01*
X40894736Y16357788D01*
X40894723Y16357787D01*
X40840799Y16351990D01*
X40703796Y16300890D01*
X40586738Y16213261D01*
X40490743Y16085027D01*
X40418465Y16020104D01*
X40326844Y15987782D01*
X40229828Y15992983D01*
X40142188Y16034914D01*
X40138469Y16037753D01*
X40005574Y16141191D01*
X39807578Y16248340D01*
X39807577Y16248341D01*
X39807574Y16248342D01*
X39594635Y16321444D01*
X39594634Y16321445D01*
X39594632Y16321445D01*
X39372569Y16358500D01*
X39147431Y16358500D01*
X38925367Y16321445D01*
X38865493Y16300890D01*
X38712426Y16248342D01*
X38712424Y16248342D01*
X38712421Y16248340D01*
X38514425Y16141191D01*
X38336758Y16002906D01*
X38173194Y15825229D01*
X38094712Y15767961D01*
X38000288Y15745086D01*
X37904298Y15760086D01*
X37821356Y15810679D01*
X37806806Y15825229D01*
X37643241Y16002906D01*
X37465574Y16141191D01*
X37267578Y16248340D01*
X37267577Y16248341D01*
X37267574Y16248342D01*
X37054635Y16321444D01*
X37054634Y16321445D01*
X37054632Y16321445D01*
X36832569Y16358500D01*
X36607431Y16358500D01*
X36385367Y16321445D01*
X36325493Y16300890D01*
X36172426Y16248342D01*
X36172424Y16248342D01*
X36172421Y16248340D01*
X35974425Y16141191D01*
X35796759Y16002906D01*
X35630303Y15822088D01*
X35627986Y15824221D01*
X35583309Y15778618D01*
X35493936Y15740520D01*
X35396786Y15739524D01*
X35306650Y15775782D01*
X35238889Y15841403D01*
X35218109Y15871079D01*
X35051080Y16038109D01*
X34857579Y16173600D01*
X34643486Y16273433D01*
X34430000Y16330637D01*
X34430000Y15435502D01*
X34322315Y15484680D01*
X34215763Y15500000D01*
X34144237Y15500000D01*
X34037685Y15484680D01*
X33930000Y15435502D01*
X33930000Y16330636D01*
X33929999Y16330637D01*
X33716508Y16273432D01*
X33502426Y16173603D01*
X33308923Y16038111D01*
X33141889Y15871077D01*
X33006397Y15677574D01*
X32906568Y15463492D01*
X32849363Y15250001D01*
X32849364Y15250000D01*
X33746314Y15250000D01*
X33720507Y15209844D01*
X33680000Y15071889D01*
X33680000Y14928111D01*
X33720507Y14790156D01*
X33746314Y14750000D01*
X32849363Y14750000D01*
X32906567Y14536514D01*
X33006400Y14322421D01*
X33141889Y14128923D01*
X33308922Y13961890D01*
X33502420Y13826401D01*
X33716508Y13726570D01*
X33930000Y13669366D01*
X33930000Y14564499D01*
X34037685Y14515320D01*
X34144237Y14500000D01*
X34215763Y14500000D01*
X34322315Y14515320D01*
X34430000Y14564499D01*
X34430000Y13669366D01*
X34643491Y13726570D01*
X34857579Y13826401D01*
X35051077Y13961890D01*
X35218109Y14128922D01*
X35238886Y14158594D01*
X35309067Y14225779D01*
X35399616Y14260993D01*
X35496748Y14258874D01*
X35585675Y14219747D01*
X35628127Y14175909D01*
X35630303Y14177912D01*
X35734903Y14064288D01*
X35796760Y13997094D01*
X35815837Y13982246D01*
X35864393Y13944453D01*
X35927947Y13870968D01*
X35958542Y13778756D01*
X35959505Y13769680D01*
X35960551Y13757718D01*
X35961483Y13736398D01*
X35961079Y13750293D01*
X35961500Y13743060D01*
X35961500Y13735820D01*
X35962339Y13728639D01*
X35962340Y13728627D01*
X35964930Y13706469D01*
X35965665Y13699269D01*
X35973079Y13614526D01*
X35973127Y13614310D01*
X36002236Y13534333D01*
X36004613Y13527494D01*
X36031380Y13446716D01*
X36031460Y13446551D01*
X36037564Y13437270D01*
X36037565Y13437268D01*
X36058977Y13404713D01*
X36078254Y13375404D01*
X36082125Y13369328D01*
X36110891Y13322690D01*
X36126803Y13296892D01*
X36126921Y13296747D01*
X36188829Y13238340D01*
X36194025Y13233294D01*
X36777249Y12650070D01*
X36831225Y12569288D01*
X36850179Y12474000D01*
X36831225Y12378712D01*
X36777249Y12297930D01*
X36696467Y12243954D01*
X36646519Y12234019D01*
X36637500Y12224999D01*
X36637500Y10275002D01*
X36637501Y10275001D01*
X36730299Y10275001D01*
X36742954Y10275646D01*
X36837649Y10285320D01*
X37001305Y10339549D01*
X37111184Y10407323D01*
X37202236Y10441216D01*
X37299326Y10437684D01*
X37372620Y10407326D01*
X37495080Y10331791D01*
X37570822Y10306693D01*
X37655309Y10258732D01*
X37715013Y10182087D01*
X37740842Y10088428D01*
X37741500Y10070333D01*
X37741500Y9667321D01*
X37722546Y9572033D01*
X37668570Y9491251D01*
X37668569Y9491251D01*
X37515560Y9338243D01*
X37488192Y9314591D01*
X37475945Y9305473D01*
X37447223Y9271244D01*
X37433425Y9256134D01*
X37442352Y9265629D01*
X37437538Y9260221D01*
X37432420Y9255101D01*
X37427932Y9249426D01*
X37427929Y9249422D01*
X37414108Y9231944D01*
X37409546Y9226344D01*
X37354838Y9161145D01*
X37354722Y9160962D01*
X37318745Y9083811D01*
X37315608Y9077333D01*
X37299530Y9045317D01*
X37275865Y8998195D01*
X37275282Y8991106D01*
X37260124Y8917696D01*
X37258557Y8910627D01*
X37238935Y8827834D01*
X37238918Y8827664D01*
X37239131Y8820341D01*
X37236697Y8805929D01*
X37236356Y8802587D01*
X37235132Y8796664D01*
X37222955Y8724542D01*
X37171350Y8642226D01*
X37148791Y8626186D01*
X37210700Y8552536D01*
X37239996Y8459903D01*
X37241500Y8432579D01*
X37241500Y8137889D01*
X37222546Y8042601D01*
X37168570Y7961819D01*
X37087788Y7907843D01*
X36992500Y7888889D01*
X36897212Y7907843D01*
X36816430Y7961819D01*
X36776145Y8022110D01*
X36775158Y8021525D01*
X36764539Y8039480D01*
X36762454Y8042601D01*
X36762103Y8043599D01*
X36759145Y8048601D01*
X36698232Y8151598D01*
X36666041Y8243264D01*
X36671380Y8340272D01*
X36698232Y8405101D01*
X36751283Y8494806D01*
X36753387Y8502047D01*
X36798172Y8588264D01*
X36837018Y8620918D01*
X36819360Y8631988D01*
X36807391Y8644079D01*
X36797296Y8655000D01*
X35424000Y8655000D01*
X35328712Y8673954D01*
X35247930Y8727930D01*
X35193954Y8808712D01*
X35175000Y8904000D01*
X35175000Y9155001D01*
X35675000Y9155001D01*
X35675001Y9155000D01*
X36797294Y9155000D01*
X36797295Y9155001D01*
X36797099Y9157494D01*
X36751283Y9315196D01*
X36667682Y9456556D01*
X36551555Y9572683D01*
X36410195Y9656283D01*
X36252493Y9702100D01*
X36220509Y9704617D01*
X36210745Y9705000D01*
X35675001Y9705000D01*
X35675000Y9704999D01*
X35675000Y9155001D01*
X35175000Y9155001D01*
X35175000Y9704999D01*
X35174999Y9705000D01*
X34639255Y9705000D01*
X34629490Y9704617D01*
X34597506Y9702100D01*
X34439804Y9656283D01*
X34298444Y9572683D01*
X34283570Y9557808D01*
X34202788Y9503832D01*
X34107500Y9484878D01*
X34012212Y9503832D01*
X33931430Y9557808D01*
X33877454Y9638590D01*
X33858500Y9733878D01*
X33858500Y9943802D01*
X33860630Y9976300D01*
X33860794Y9977554D01*
X33863750Y10000000D01*
X33858500Y10039880D01*
X33858500Y10039885D01*
X33842838Y10158850D01*
X33808397Y10242000D01*
X33781524Y10306876D01*
X33748355Y10350103D01*
X33708487Y10402060D01*
X33708482Y10402066D01*
X33708478Y10402071D01*
X33708474Y10402075D01*
X33683987Y10433987D01*
X33665023Y10448539D01*
X33640536Y10470013D01*
X33140848Y10969701D01*
X35350001Y10969701D01*
X35350645Y10957046D01*
X35360319Y10862351D01*
X35414547Y10698698D01*
X35505054Y10551964D01*
X35626963Y10430055D01*
X35773697Y10339548D01*
X35937348Y10285320D01*
X36032048Y10275645D01*
X36044697Y10275001D01*
X36137499Y10275001D01*
X36137500Y10275002D01*
X36137500Y11000000D01*
X35350002Y11000000D01*
X35350001Y10999999D01*
X35350001Y10969701D01*
X33140848Y10969701D01*
X32610548Y11500001D01*
X35350000Y11500001D01*
X35350001Y11500000D01*
X36137499Y11500000D01*
X36137500Y11500001D01*
X36137500Y12225000D01*
X36044681Y12225000D01*
X36032064Y12224357D01*
X35937350Y12214681D01*
X35773697Y12160453D01*
X35626963Y12069946D01*
X35505054Y11948037D01*
X35414547Y11801303D01*
X35360319Y11637652D01*
X35350644Y11542953D01*
X35350000Y11530303D01*
X35350000Y11500001D01*
X32610548Y11500001D01*
X31970011Y12140538D01*
X31948537Y12165025D01*
X31933986Y12183988D01*
X31913724Y12199536D01*
X31913721Y12199538D01*
X31902074Y12208475D01*
X31902072Y12208477D01*
X31806876Y12281524D01*
X31806875Y12281525D01*
X31687402Y12331012D01*
X31606620Y12384988D01*
X31552644Y12465770D01*
X31533690Y12561058D01*
X31552644Y12656346D01*
X31559619Y12671694D01*
X31590890Y12734746D01*
X31637086Y12920505D01*
X31639713Y12959242D01*
X31640000Y12967699D01*
X31640000Y14032302D01*
X31639713Y14040759D01*
X31637086Y14079496D01*
X31590890Y14265254D01*
X31560362Y14326810D01*
X30556070Y13322517D01*
X30475288Y13268541D01*
X30380000Y13249587D01*
X30284712Y13268541D01*
X30203930Y13322517D01*
X30202516Y13323931D01*
X30148540Y13404713D01*
X30129586Y13500001D01*
X30148540Y13595289D01*
X30202516Y13676071D01*
X31233762Y14707318D01*
X31065253Y14790891D01*
X30879495Y14837087D01*
X30840758Y14839714D01*
X30832301Y14840000D01*
X29927699Y14840000D01*
X29919241Y14839714D01*
X29880504Y14837087D01*
X29694744Y14790891D01*
X29609634Y14748679D01*
X29515847Y14723322D01*
X29419495Y14735785D01*
X29335246Y14784172D01*
X29275928Y14861117D01*
X29250571Y14954904D01*
X29250000Y14971751D01*
X29250000Y18251000D01*
X29268954Y18346288D01*
X29322930Y18427070D01*
X29403712Y18481046D01*
X29499000Y18500000D01*
X44251000Y18500000D01*
X44346288Y18481046D01*
G37*
G04 #@! TD.AperFunction*
M02*
