G04 #@! TF.GenerationSoftware,KiCad,Pcbnew,7.0.2*
G04 #@! TF.CreationDate,2023-05-30T13:50:11+09:00*
G04 #@! TF.ProjectId,sync,73796e63-2e6b-4696-9361-645f70636258,rev?*
G04 #@! TF.SameCoordinates,PX3473bc0PY4c4b400*
G04 #@! TF.FileFunction,Legend,Top*
G04 #@! TF.FilePolarity,Positive*
%FSLAX46Y46*%
G04 Gerber Fmt 4.6, Leading zero omitted, Abs format (unit mm)*
G04 Created by KiCad (PCBNEW 7.0.2) date 2023-05-30 13:50:11*
%MOMM*%
%LPD*%
G01*
G04 APERTURE LIST*
%ADD10C,0.100000*%
%ADD11C,0.150000*%
%ADD12C,0.120000*%
G04 APERTURE END LIST*
D10*
X27761905Y16537381D02*
X27761905Y17537381D01*
X27761905Y17537381D02*
X28000000Y17537381D01*
X28000000Y17537381D02*
X28142857Y17489762D01*
X28142857Y17489762D02*
X28238095Y17394524D01*
X28238095Y17394524D02*
X28285714Y17299286D01*
X28285714Y17299286D02*
X28333333Y17108810D01*
X28333333Y17108810D02*
X28333333Y16965953D01*
X28333333Y16965953D02*
X28285714Y16775477D01*
X28285714Y16775477D02*
X28238095Y16680239D01*
X28238095Y16680239D02*
X28142857Y16585000D01*
X28142857Y16585000D02*
X28000000Y16537381D01*
X28000000Y16537381D02*
X27761905Y16537381D01*
X28714286Y17442143D02*
X28761905Y17489762D01*
X28761905Y17489762D02*
X28857143Y17537381D01*
X28857143Y17537381D02*
X29095238Y17537381D01*
X29095238Y17537381D02*
X29190476Y17489762D01*
X29190476Y17489762D02*
X29238095Y17442143D01*
X29238095Y17442143D02*
X29285714Y17346905D01*
X29285714Y17346905D02*
X29285714Y17251667D01*
X29285714Y17251667D02*
X29238095Y17108810D01*
X29238095Y17108810D02*
X28666667Y16537381D01*
X28666667Y16537381D02*
X29285714Y16537381D01*
X27261905Y6537381D02*
X27261905Y7537381D01*
X27261905Y7537381D02*
X27500000Y7537381D01*
X27500000Y7537381D02*
X27642857Y7489762D01*
X27642857Y7489762D02*
X27738095Y7394524D01*
X27738095Y7394524D02*
X27785714Y7299286D01*
X27785714Y7299286D02*
X27833333Y7108810D01*
X27833333Y7108810D02*
X27833333Y6965953D01*
X27833333Y6965953D02*
X27785714Y6775477D01*
X27785714Y6775477D02*
X27738095Y6680239D01*
X27738095Y6680239D02*
X27642857Y6585000D01*
X27642857Y6585000D02*
X27500000Y6537381D01*
X27500000Y6537381D02*
X27261905Y6537381D01*
X28785714Y6537381D02*
X28214286Y6537381D01*
X28500000Y6537381D02*
X28500000Y7537381D01*
X28500000Y7537381D02*
X28404762Y7394524D01*
X28404762Y7394524D02*
X28309524Y7299286D01*
X28309524Y7299286D02*
X28214286Y7251667D01*
D11*
X32333333Y6537381D02*
X32000000Y7013572D01*
X31761905Y6537381D02*
X31761905Y7537381D01*
X31761905Y7537381D02*
X32142857Y7537381D01*
X32142857Y7537381D02*
X32238095Y7489762D01*
X32238095Y7489762D02*
X32285714Y7442143D01*
X32285714Y7442143D02*
X32333333Y7346905D01*
X32333333Y7346905D02*
X32333333Y7204048D01*
X32333333Y7204048D02*
X32285714Y7108810D01*
X32285714Y7108810D02*
X32238095Y7061191D01*
X32238095Y7061191D02*
X32142857Y7013572D01*
X32142857Y7013572D02*
X31761905Y7013572D01*
X33285714Y6537381D02*
X32714286Y6537381D01*
X33000000Y6537381D02*
X33000000Y7537381D01*
X33000000Y7537381D02*
X32904762Y7394524D01*
X32904762Y7394524D02*
X32809524Y7299286D01*
X32809524Y7299286D02*
X32714286Y7251667D01*
X24833333Y7287381D02*
X24500000Y7763572D01*
X24261905Y7287381D02*
X24261905Y8287381D01*
X24261905Y8287381D02*
X24642857Y8287381D01*
X24642857Y8287381D02*
X24738095Y8239762D01*
X24738095Y8239762D02*
X24785714Y8192143D01*
X24785714Y8192143D02*
X24833333Y8096905D01*
X24833333Y8096905D02*
X24833333Y7954048D01*
X24833333Y7954048D02*
X24785714Y7858810D01*
X24785714Y7858810D02*
X24738095Y7811191D01*
X24738095Y7811191D02*
X24642857Y7763572D01*
X24642857Y7763572D02*
X24261905Y7763572D01*
X25214286Y8192143D02*
X25261905Y8239762D01*
X25261905Y8239762D02*
X25357143Y8287381D01*
X25357143Y8287381D02*
X25595238Y8287381D01*
X25595238Y8287381D02*
X25690476Y8239762D01*
X25690476Y8239762D02*
X25738095Y8192143D01*
X25738095Y8192143D02*
X25785714Y8096905D01*
X25785714Y8096905D02*
X25785714Y8001667D01*
X25785714Y8001667D02*
X25738095Y7858810D01*
X25738095Y7858810D02*
X25166667Y7287381D01*
X25166667Y7287381D02*
X25785714Y7287381D01*
X43592619Y14666667D02*
X44306904Y14666667D01*
X44306904Y14666667D02*
X44449761Y14619048D01*
X44449761Y14619048D02*
X44545000Y14523810D01*
X44545000Y14523810D02*
X44592619Y14380953D01*
X44592619Y14380953D02*
X44592619Y14285715D01*
X44592619Y15666667D02*
X44592619Y15095239D01*
X44592619Y15380953D02*
X43592619Y15380953D01*
X43592619Y15380953D02*
X43735476Y15285715D01*
X43735476Y15285715D02*
X43830714Y15190477D01*
X43830714Y15190477D02*
X43878333Y15095239D01*
X2462619Y9666667D02*
X3176904Y9666667D01*
X3176904Y9666667D02*
X3319761Y9619048D01*
X3319761Y9619048D02*
X3415000Y9523810D01*
X3415000Y9523810D02*
X3462619Y9380953D01*
X3462619Y9380953D02*
X3462619Y9285715D01*
X2557857Y10095239D02*
X2510238Y10142858D01*
X2510238Y10142858D02*
X2462619Y10238096D01*
X2462619Y10238096D02*
X2462619Y10476191D01*
X2462619Y10476191D02*
X2510238Y10571429D01*
X2510238Y10571429D02*
X2557857Y10619048D01*
X2557857Y10619048D02*
X2653095Y10666667D01*
X2653095Y10666667D02*
X2748333Y10666667D01*
X2748333Y10666667D02*
X2891190Y10619048D01*
X2891190Y10619048D02*
X3462619Y10047620D01*
X3462619Y10047620D02*
X3462619Y10666667D01*
X27916666Y12087381D02*
X27916666Y11373096D01*
X27916666Y11373096D02*
X27869047Y11230239D01*
X27869047Y11230239D02*
X27773809Y11135000D01*
X27773809Y11135000D02*
X27630952Y11087381D01*
X27630952Y11087381D02*
X27535714Y11087381D01*
X28392857Y11087381D02*
X28392857Y12087381D01*
X28392857Y12087381D02*
X28773809Y12087381D01*
X28773809Y12087381D02*
X28869047Y12039762D01*
X28869047Y12039762D02*
X28916666Y11992143D01*
X28916666Y11992143D02*
X28964285Y11896905D01*
X28964285Y11896905D02*
X28964285Y11754048D01*
X28964285Y11754048D02*
X28916666Y11658810D01*
X28916666Y11658810D02*
X28869047Y11611191D01*
X28869047Y11611191D02*
X28773809Y11563572D01*
X28773809Y11563572D02*
X28392857Y11563572D01*
X29916666Y11087381D02*
X29345238Y11087381D01*
X29630952Y11087381D02*
X29630952Y12087381D01*
X29630952Y12087381D02*
X29535714Y11944524D01*
X29535714Y11944524D02*
X29440476Y11849286D01*
X29440476Y11849286D02*
X29345238Y11801667D01*
X37083333Y8332620D02*
X37035714Y8285000D01*
X37035714Y8285000D02*
X36892857Y8237381D01*
X36892857Y8237381D02*
X36797619Y8237381D01*
X36797619Y8237381D02*
X36654762Y8285000D01*
X36654762Y8285000D02*
X36559524Y8380239D01*
X36559524Y8380239D02*
X36511905Y8475477D01*
X36511905Y8475477D02*
X36464286Y8665953D01*
X36464286Y8665953D02*
X36464286Y8808810D01*
X36464286Y8808810D02*
X36511905Y8999286D01*
X36511905Y8999286D02*
X36559524Y9094524D01*
X36559524Y9094524D02*
X36654762Y9189762D01*
X36654762Y9189762D02*
X36797619Y9237381D01*
X36797619Y9237381D02*
X36892857Y9237381D01*
X36892857Y9237381D02*
X37035714Y9189762D01*
X37035714Y9189762D02*
X37083333Y9142143D01*
X38035714Y8237381D02*
X37464286Y8237381D01*
X37750000Y8237381D02*
X37750000Y9237381D01*
X37750000Y9237381D02*
X37654762Y9094524D01*
X37654762Y9094524D02*
X37559524Y8999286D01*
X37559524Y8999286D02*
X37464286Y8951667D01*
X37238095Y4137381D02*
X37238095Y3327858D01*
X37238095Y3327858D02*
X37285714Y3232620D01*
X37285714Y3232620D02*
X37333333Y3185000D01*
X37333333Y3185000D02*
X37428571Y3137381D01*
X37428571Y3137381D02*
X37619047Y3137381D01*
X37619047Y3137381D02*
X37714285Y3185000D01*
X37714285Y3185000D02*
X37761904Y3232620D01*
X37761904Y3232620D02*
X37809523Y3327858D01*
X37809523Y3327858D02*
X37809523Y4137381D01*
X38809523Y3137381D02*
X38238095Y3137381D01*
X38523809Y3137381D02*
X38523809Y4137381D01*
X38523809Y4137381D02*
X38428571Y3994524D01*
X38428571Y3994524D02*
X38333333Y3899286D01*
X38333333Y3899286D02*
X38238095Y3851667D01*
D10*
X25860000Y14900000D02*
X31140000Y14900000D01*
X25860000Y12100000D02*
X25860000Y14900000D01*
X27250000Y14900000D02*
X27250000Y12100000D01*
X31140000Y14900000D02*
X31140000Y12100000D01*
X31140000Y12100000D02*
X25860000Y12100000D01*
X25360000Y4900000D02*
X30640000Y4900000D01*
X25360000Y2100000D02*
X25360000Y4900000D01*
X26750000Y4900000D02*
X26750000Y2100000D01*
X30640000Y4900000D02*
X30640000Y2100000D01*
X30640000Y2100000D02*
X25360000Y2100000D01*
D12*
X29977500Y6512742D02*
X29977500Y6987258D01*
X31022500Y6512742D02*
X31022500Y6987258D01*
X26477500Y6512742D02*
X26477500Y6987258D01*
X27522500Y6512742D02*
X27522500Y6987258D01*
X43130000Y16330000D02*
X43130000Y15000000D01*
X41800000Y16330000D02*
X43130000Y16330000D01*
X40530000Y16330000D02*
X32850000Y16330000D01*
X40530000Y16330000D02*
X40530000Y13670000D01*
X32850000Y16330000D02*
X32850000Y13670000D01*
X40530000Y13670000D02*
X32850000Y13670000D01*
X4090000Y3640000D02*
X16910000Y3640000D01*
X16910000Y3640000D02*
X16910000Y16360000D01*
X14610000Y4750000D02*
X14610000Y15250000D01*
X16910000Y4750000D02*
X14610000Y4750000D01*
X4090000Y4860000D02*
X4090000Y3640000D01*
X6990000Y4860000D02*
X4090000Y4860000D01*
X6990000Y5140000D02*
X6990000Y4860000D01*
X9600000Y5700000D02*
X9600000Y3640000D01*
X13010000Y5700000D02*
X9600000Y5700000D01*
X6000000Y5850000D02*
X6000000Y6650000D01*
X6400000Y6250000D02*
X6000000Y5850000D01*
X6000000Y6650000D02*
X6400000Y6250000D01*
X9600000Y6800000D02*
X13010000Y6800000D01*
X13010000Y6800000D02*
X13010000Y5700000D01*
X9600000Y7300000D02*
X9600000Y6800000D01*
X14610000Y7300000D02*
X9600000Y7300000D01*
X11000000Y9200000D02*
X11000000Y10800000D01*
X12800000Y9200000D02*
X11000000Y9200000D01*
X11000000Y10800000D02*
X12800000Y10800000D01*
X12800000Y10800000D02*
X12800000Y9200000D01*
X9600000Y12700000D02*
X9600000Y13200000D01*
X14610000Y12700000D02*
X9600000Y12700000D01*
X9600000Y13200000D02*
X13010000Y13200000D01*
X13010000Y13200000D02*
X13010000Y14300000D01*
X9600000Y14300000D02*
X9600000Y16360000D01*
X13010000Y14300000D02*
X9600000Y14300000D01*
X4090000Y15140000D02*
X6990000Y15140000D01*
X6990000Y15140000D02*
X6990000Y14860000D01*
X14610000Y15250000D02*
X16910000Y15250000D01*
X4090000Y16360000D02*
X4090000Y15140000D01*
X16910000Y16360000D02*
X4090000Y16360000D01*
X26700000Y10750000D02*
X30800000Y10750000D01*
X26700000Y8750000D02*
X26700000Y10750000D01*
X27150000Y8250000D02*
X27750000Y8250000D01*
X27450000Y8550000D02*
X27150000Y8250000D01*
X27450000Y8550000D02*
X27750000Y8250000D01*
X30800000Y10750000D02*
X30800000Y8750000D01*
X30800000Y8750000D02*
X26700000Y8750000D01*
X39300000Y10800000D02*
X39300000Y10200000D01*
X38750000Y12000000D02*
X38150000Y12000000D01*
X38650000Y9500000D02*
X35850000Y9500000D01*
X38450000Y11700000D02*
X38750000Y12000000D01*
X38450000Y11700000D02*
X38150000Y12000000D01*
X35850000Y11500000D02*
X38650000Y11500000D01*
X35200000Y10200000D02*
X35200000Y10800000D01*
X38600000Y9500000D02*
G75*
G03*
X39300000Y10200000I1J699999D01*
G01*
X39300000Y10800000D02*
G75*
G03*
X38600000Y11500000I-699999J1D01*
G01*
X35200000Y10200000D02*
G75*
G03*
X35900000Y9500000I700000J0D01*
G01*
X35900000Y11500000D02*
G75*
G03*
X35200000Y10800000I0J-700000D01*
G01*
X38000000Y4440000D02*
X41450000Y4440000D01*
X38000000Y4440000D02*
X36050000Y4440000D01*
X38000000Y9560000D02*
X39950000Y9560000D01*
X38000000Y9560000D02*
X36050000Y9560000D01*
M02*
