G04 #@! TF.GenerationSoftware,KiCad,Pcbnew,7.0.2*
G04 #@! TF.CreationDate,2023-06-05T15:13:54+09:00*
G04 #@! TF.ProjectId,sync,73796e63-2e6b-4696-9361-645f70636258,rev?*
G04 #@! TF.SameCoordinates,PX3473bc0PY4c4b400*
G04 #@! TF.FileFunction,Copper,L1,Top*
G04 #@! TF.FilePolarity,Positive*
%FSLAX46Y46*%
G04 Gerber Fmt 4.6, Leading zero omitted, Abs format (unit mm)*
G04 Created by KiCad (PCBNEW 7.0.2) date 2023-06-05 15:13:54*
%MOMM*%
%LPD*%
G01*
G04 APERTURE LIST*
G04 Aperture macros list*
%AMRoundRect*
0 Rectangle with rounded corners*
0 $1 Rounding radius*
0 $2 $3 $4 $5 $6 $7 $8 $9 X,Y pos of 4 corners*
0 Add a 4 corners polygon primitive as box body*
4,1,4,$2,$3,$4,$5,$6,$7,$8,$9,$2,$3,0*
0 Add four circle primitives for the rounded corners*
1,1,$1+$1,$2,$3*
1,1,$1+$1,$4,$5*
1,1,$1+$1,$6,$7*
1,1,$1+$1,$8,$9*
0 Add four rect primitives between the rounded corners*
20,1,$1+$1,$2,$3,$4,$5,0*
20,1,$1+$1,$4,$5,$6,$7,0*
20,1,$1+$1,$6,$7,$8,$9,0*
20,1,$1+$1,$8,$9,$2,$3,0*%
G04 Aperture macros list end*
G04 #@! TA.AperFunction,SMDPad,CuDef*
%ADD10RoundRect,0.237500X0.300000X0.237500X-0.300000X0.237500X-0.300000X-0.237500X0.300000X-0.237500X0*%
G04 #@! TD*
G04 #@! TA.AperFunction,SMDPad,CuDef*
%ADD11RoundRect,0.200000X0.275000X-0.200000X0.275000X0.200000X-0.275000X0.200000X-0.275000X-0.200000X0*%
G04 #@! TD*
G04 #@! TA.AperFunction,SMDPad,CuDef*
%ADD12RoundRect,0.380000X-0.380000X-0.460000X0.380000X-0.460000X0.380000X0.460000X-0.380000X0.460000X0*%
G04 #@! TD*
G04 #@! TA.AperFunction,ComponentPad*
%ADD13R,1.700000X1.700000*%
G04 #@! TD*
G04 #@! TA.AperFunction,ComponentPad*
%ADD14O,1.700000X1.700000*%
G04 #@! TD*
G04 #@! TA.AperFunction,ComponentPad*
%ADD15RoundRect,0.250000X0.725000X-0.600000X0.725000X0.600000X-0.725000X0.600000X-0.725000X-0.600000X0*%
G04 #@! TD*
G04 #@! TA.AperFunction,ComponentPad*
%ADD16O,1.950000X1.700000*%
G04 #@! TD*
G04 #@! TA.AperFunction,SMDPad,CuDef*
%ADD17R,1.000000X1.500000*%
G04 #@! TD*
G04 #@! TA.AperFunction,SMDPad,CuDef*
%ADD18RoundRect,0.150000X0.725000X0.150000X-0.725000X0.150000X-0.725000X-0.150000X0.725000X-0.150000X0*%
G04 #@! TD*
G04 #@! TA.AperFunction,ViaPad*
%ADD19C,0.800000*%
G04 #@! TD*
G04 #@! TA.AperFunction,Conductor*
%ADD20C,0.500000*%
G04 #@! TD*
G04 #@! TA.AperFunction,Conductor*
%ADD21C,0.250000*%
G04 #@! TD*
G04 #@! TA.AperFunction,Conductor*
%ADD22C,0.200000*%
G04 #@! TD*
G04 APERTURE END LIST*
D10*
X38112500Y11250000D03*
X36387500Y11250000D03*
D11*
X30000000Y6425000D03*
X30000000Y8075000D03*
X27000000Y6425000D03*
X27000000Y8075000D03*
D12*
X26620000Y13750000D03*
X30380000Y13750000D03*
X26870000Y4000000D03*
X30630000Y4000000D03*
D13*
X41800000Y15000000D03*
D14*
X39260000Y15000000D03*
X36720000Y15000000D03*
X34180000Y15000000D03*
D15*
X7600000Y6250000D03*
D16*
X7600000Y8750000D03*
X7600000Y11250000D03*
X7600000Y13750000D03*
D17*
X27450000Y10250000D03*
X28750000Y10250000D03*
X30050000Y10250000D03*
D18*
X40575000Y5095000D03*
X40575000Y6365000D03*
X40575000Y7635000D03*
X40575000Y8905000D03*
X35425000Y8905000D03*
X35425000Y7635000D03*
X35425000Y6365000D03*
X35425000Y5095000D03*
D19*
X43250000Y10000000D03*
X43750000Y17750000D03*
X34250000Y10500000D03*
X43500000Y3000000D03*
X30000000Y17750000D03*
X37000000Y17750000D03*
X34000000Y3000000D03*
D20*
X38000000Y12500000D02*
X36720000Y13780000D01*
X38000000Y6250000D02*
X38000000Y7500000D01*
X40575000Y6365000D02*
X38115000Y6365000D01*
X35425000Y5095000D02*
X37095000Y5095000D01*
X38135000Y7635000D02*
X38000000Y7500000D01*
X37095000Y5095000D02*
X38000000Y6000000D01*
X38000000Y6000000D02*
X38000000Y6250000D01*
X36720000Y13780000D02*
X36720000Y15000000D01*
X40575000Y7635000D02*
X38135000Y7635000D01*
X38115000Y6365000D02*
X38000000Y6250000D01*
X38000000Y7500000D02*
X38000000Y12500000D01*
D21*
X40575000Y12175000D02*
X39260000Y13490000D01*
X40575000Y8905000D02*
X40575000Y12175000D01*
X39260000Y13490000D02*
X39260000Y15000000D01*
D22*
X26620000Y13500000D02*
X26620000Y11870000D01*
X25750000Y11250000D02*
X7600000Y11250000D01*
X31500000Y11750000D02*
X28750000Y11750000D01*
X26750000Y11750000D02*
X26500000Y11750000D01*
X32250000Y11000000D02*
X31500000Y11750000D01*
X28750000Y11750000D02*
X26750000Y11750000D01*
X28750000Y9750000D02*
X28750000Y11750000D01*
X26250000Y11750000D02*
X25750000Y11250000D01*
X26620000Y11870000D02*
X26500000Y11750000D01*
X35425000Y7635000D02*
X33615000Y7635000D01*
X26500000Y11750000D02*
X26250000Y11750000D01*
X33615000Y7635000D02*
X32250000Y9000000D01*
X32250000Y9000000D02*
X32250000Y11000000D01*
X23875000Y8750000D02*
X7600000Y8750000D01*
X35425000Y6365000D02*
X33115000Y6365000D01*
D21*
X6250000Y13750000D02*
X7600000Y13750000D01*
D22*
X26125000Y6500000D02*
X23875000Y8750000D01*
X27000000Y4130000D02*
X26620000Y3750000D01*
X33115000Y6365000D02*
X32980000Y6500000D01*
X26620000Y3750000D02*
X26620000Y3500000D01*
D21*
X5500000Y9500000D02*
X5500000Y13000000D01*
X6250000Y8750000D02*
X5500000Y9500000D01*
X5500000Y13000000D02*
X6250000Y13750000D01*
X7600000Y8750000D02*
X6250000Y8750000D01*
D22*
X27000000Y6425000D02*
X27000000Y4130000D01*
X32980000Y6500000D02*
X26125000Y6500000D01*
D21*
X30050000Y9750000D02*
X30050000Y8125000D01*
X30050000Y8125000D02*
X30000000Y8075000D01*
X27000000Y8750000D02*
X27000000Y8075000D01*
X27450000Y9750000D02*
X27450000Y9200000D01*
X27450000Y9200000D02*
X27000000Y8750000D01*
G04 #@! TA.AperFunction,Conductor*
G36*
X44346288Y18481046D02*
G01*
X44427070Y18427070D01*
X44481046Y18346288D01*
X44500000Y18251000D01*
X44500000Y2499000D01*
X44481046Y2403712D01*
X44427070Y2322930D01*
X44346288Y2268954D01*
X44251000Y2250000D01*
X31452026Y2250000D01*
X31356738Y2268954D01*
X31275956Y2322930D01*
X31221980Y2403712D01*
X31203026Y2499000D01*
X31221980Y2594288D01*
X31275956Y2675070D01*
X31341390Y2722071D01*
X31483762Y2792684D01*
X30629999Y3646447D01*
X29776235Y2792685D01*
X29918611Y2722071D01*
X29995555Y2662752D01*
X30043941Y2578504D01*
X30056404Y2482152D01*
X30031046Y2388364D01*
X29971727Y2311420D01*
X29887479Y2263034D01*
X29807975Y2250000D01*
X29499000Y2250000D01*
X29403712Y2268954D01*
X29322930Y2322930D01*
X29268954Y2403712D01*
X29250000Y2499000D01*
X29250000Y2912775D01*
X29268954Y3008063D01*
X29322930Y3088845D01*
X29403712Y3142821D01*
X29423129Y3146684D01*
X30276447Y4000000D01*
X30983553Y4000000D01*
X31810361Y3173191D01*
X31810362Y3173192D01*
X31840889Y3234743D01*
X31887086Y3420505D01*
X31889713Y3459242D01*
X31890000Y3467699D01*
X31890000Y4532302D01*
X31889713Y4540759D01*
X31887086Y4579496D01*
X31840890Y4765254D01*
X31810361Y4826810D01*
X30983553Y4000001D01*
X30983553Y4000000D01*
X30276447Y4000000D01*
X30630001Y4353553D01*
X31483763Y5207317D01*
X31315253Y5290891D01*
X31129495Y5337087D01*
X31090758Y5339714D01*
X31082301Y5340000D01*
X30993110Y5340000D01*
X30897822Y5358954D01*
X30817040Y5412930D01*
X30763064Y5493712D01*
X30744110Y5589000D01*
X30763064Y5684288D01*
X30817037Y5765067D01*
X30836816Y5784845D01*
X30836817Y5784848D01*
X30858194Y5806224D01*
X30859407Y5805011D01*
X30894149Y5843054D01*
X30982131Y5884263D01*
X31041727Y5891500D01*
X32647981Y5891500D01*
X32743269Y5872546D01*
X32799563Y5840045D01*
X32808124Y5833476D01*
X32956146Y5772163D01*
X32956149Y5772162D01*
X32975543Y5769609D01*
X33075115Y5756500D01*
X33075120Y5756500D01*
X33115000Y5751250D01*
X33135462Y5753944D01*
X33138701Y5754370D01*
X33171199Y5756500D01*
X33831240Y5756500D01*
X33926528Y5737546D01*
X34007310Y5683570D01*
X34061286Y5602788D01*
X34080240Y5507500D01*
X34070353Y5438034D01*
X34062721Y5411761D01*
X34044438Y5348833D01*
X34044437Y5348831D01*
X34044438Y5348831D01*
X34041500Y5311502D01*
X34041500Y4878498D01*
X34041882Y4873634D01*
X34041883Y4873630D01*
X34044438Y4841166D01*
X34066493Y4765254D01*
X34090855Y4681399D01*
X34175547Y4538193D01*
X34293193Y4420547D01*
X34436399Y4335855D01*
X34561317Y4299564D01*
X34596165Y4289439D01*
X34596169Y4289438D01*
X34633498Y4286500D01*
X34638395Y4286500D01*
X36211605Y4286500D01*
X36216502Y4286500D01*
X36253831Y4289438D01*
X36253833Y4289439D01*
X36253836Y4289439D01*
X36381792Y4326613D01*
X36451260Y4336500D01*
X37021600Y4336500D01*
X37057688Y4333871D01*
X37072789Y4331659D01*
X37117285Y4335553D01*
X37138605Y4336484D01*
X37124702Y4336079D01*
X37131926Y4336500D01*
X37139180Y4336500D01*
X37168506Y4339929D01*
X37175691Y4340663D01*
X37249426Y4347113D01*
X37249428Y4347114D01*
X37260506Y4348083D01*
X37260658Y4348117D01*
X37271107Y4351921D01*
X37271113Y4351921D01*
X37340718Y4377256D01*
X37347461Y4379600D01*
X37417738Y4402886D01*
X37417740Y4402888D01*
X37428317Y4406392D01*
X37428429Y4406446D01*
X37437732Y4412565D01*
X37499607Y4453263D01*
X37505633Y4457103D01*
X37568651Y4495970D01*
X37568652Y4495972D01*
X37578133Y4501819D01*
X37578231Y4501899D01*
X37585870Y4509997D01*
X37585874Y4509999D01*
X37636696Y4563869D01*
X37641674Y4568995D01*
X38484447Y5411768D01*
X38511819Y5435420D01*
X38524058Y5444531D01*
X38552782Y5478766D01*
X38567863Y5495159D01*
X38557636Y5484360D01*
X38562451Y5489772D01*
X38567580Y5494899D01*
X38578414Y5508601D01*
X38581053Y5511938D01*
X38655022Y5574928D01*
X38747465Y5604816D01*
X38776373Y5606500D01*
X38945350Y5606500D01*
X39040638Y5587546D01*
X39121420Y5533570D01*
X39175396Y5452788D01*
X39194350Y5357500D01*
X39193583Y5337969D01*
X39191500Y5311502D01*
X39191500Y4878498D01*
X39191882Y4873634D01*
X39191883Y4873630D01*
X39194438Y4841166D01*
X39216493Y4765254D01*
X39240855Y4681399D01*
X39325547Y4538193D01*
X39443193Y4420547D01*
X39586399Y4335855D01*
X39711317Y4299564D01*
X39746165Y4289439D01*
X39746169Y4289438D01*
X39783498Y4286500D01*
X39788395Y4286500D01*
X41361605Y4286500D01*
X41366502Y4286500D01*
X41403831Y4289438D01*
X41563601Y4335855D01*
X41706807Y4420547D01*
X41824453Y4538193D01*
X41909145Y4681399D01*
X41955562Y4841169D01*
X41958500Y4878498D01*
X41958500Y5311502D01*
X41955562Y5348831D01*
X41953043Y5357500D01*
X41930404Y5435425D01*
X41909145Y5508601D01*
X41853167Y5603253D01*
X41820978Y5694914D01*
X41826316Y5791922D01*
X41853166Y5856746D01*
X41909145Y5951399D01*
X41955562Y6111169D01*
X41958500Y6148498D01*
X41958500Y6581502D01*
X41955562Y6618831D01*
X41909145Y6778601D01*
X41853167Y6873253D01*
X41820978Y6964914D01*
X41826316Y7061922D01*
X41853166Y7126746D01*
X41909145Y7221399D01*
X41955562Y7381169D01*
X41958500Y7418498D01*
X41958500Y7851502D01*
X41955562Y7888831D01*
X41909145Y8048601D01*
X41853167Y8143253D01*
X41820978Y8234914D01*
X41826316Y8331922D01*
X41853166Y8396746D01*
X41909145Y8491399D01*
X41955562Y8651169D01*
X41958500Y8688498D01*
X41958500Y9121502D01*
X41955562Y9158831D01*
X41909145Y9318601D01*
X41824453Y9461807D01*
X41706807Y9579453D01*
X41563601Y9664145D01*
X41563598Y9664146D01*
X41388031Y9715153D01*
X41301814Y9759939D01*
X41239299Y9834310D01*
X41210004Y9926942D01*
X41208500Y9954266D01*
X41208500Y12077569D01*
X41211127Y12101368D01*
X41209896Y12140538D01*
X41208623Y12181060D01*
X41208500Y12188881D01*
X41208500Y12207020D01*
X41208500Y12214856D01*
X41207516Y12222636D01*
X41207360Y12225123D01*
X41206991Y12232954D01*
X41206958Y12234019D01*
X41205674Y12274889D01*
X41202721Y12285052D01*
X41194799Y12323306D01*
X41193474Y12333797D01*
X41179327Y12369526D01*
X41171738Y12391693D01*
X41161018Y12428593D01*
X41155632Y12437701D01*
X41138446Y12472782D01*
X41134552Y12482617D01*
X41111974Y12513692D01*
X41099093Y12533302D01*
X41079543Y12566360D01*
X41079542Y12566362D01*
X41072055Y12573849D01*
X41046692Y12603546D01*
X41040472Y12612107D01*
X41010875Y12636592D01*
X40993526Y12652379D01*
X40082096Y13563810D01*
X40028120Y13644591D01*
X40009166Y13739879D01*
X40028120Y13835167D01*
X40082097Y13915949D01*
X40105211Y13936362D01*
X40138474Y13962252D01*
X40225308Y14005819D01*
X40322209Y14012841D01*
X40414421Y13982246D01*
X40487905Y13918692D01*
X40490743Y13914974D01*
X40532786Y13858811D01*
X40586739Y13786739D01*
X40703796Y13699111D01*
X40840799Y13648011D01*
X40901362Y13641500D01*
X40908034Y13641500D01*
X42691966Y13641500D01*
X42698638Y13641500D01*
X42759201Y13648011D01*
X42896204Y13699111D01*
X43013261Y13786739D01*
X43100889Y13903796D01*
X43151989Y14040799D01*
X43158500Y14101362D01*
X43158500Y15898638D01*
X43151989Y15959201D01*
X43100889Y16096204D01*
X43013261Y16213261D01*
X42896204Y16300889D01*
X42896203Y16300890D01*
X42759200Y16351990D01*
X42705276Y16357787D01*
X42705264Y16357788D01*
X42698638Y16358500D01*
X40901362Y16358500D01*
X40894736Y16357788D01*
X40894723Y16357787D01*
X40840799Y16351990D01*
X40703796Y16300890D01*
X40586738Y16213261D01*
X40490743Y16085027D01*
X40418465Y16020104D01*
X40326844Y15987782D01*
X40229828Y15992983D01*
X40142188Y16034914D01*
X40138469Y16037753D01*
X40005574Y16141191D01*
X39807578Y16248340D01*
X39807577Y16248341D01*
X39807574Y16248342D01*
X39594635Y16321444D01*
X39594634Y16321445D01*
X39594632Y16321445D01*
X39372569Y16358500D01*
X39147431Y16358500D01*
X38925367Y16321445D01*
X38865493Y16300890D01*
X38712426Y16248342D01*
X38712424Y16248342D01*
X38712421Y16248340D01*
X38514425Y16141191D01*
X38336758Y16002906D01*
X38173194Y15825229D01*
X38094712Y15767961D01*
X38000288Y15745086D01*
X37904298Y15760086D01*
X37821356Y15810679D01*
X37806806Y15825229D01*
X37643241Y16002906D01*
X37465574Y16141191D01*
X37267578Y16248340D01*
X37267577Y16248341D01*
X37267574Y16248342D01*
X37054635Y16321444D01*
X37054634Y16321445D01*
X37054632Y16321445D01*
X36832569Y16358500D01*
X36607431Y16358500D01*
X36385367Y16321445D01*
X36325493Y16300890D01*
X36172426Y16248342D01*
X36172424Y16248342D01*
X36172421Y16248340D01*
X35974425Y16141191D01*
X35796759Y16002906D01*
X35630303Y15822088D01*
X35627986Y15824221D01*
X35583309Y15778618D01*
X35493936Y15740520D01*
X35396786Y15739524D01*
X35306650Y15775782D01*
X35238889Y15841403D01*
X35218109Y15871079D01*
X35051080Y16038109D01*
X34857579Y16173600D01*
X34643486Y16273433D01*
X34430000Y16330637D01*
X34430000Y15435502D01*
X34322315Y15484680D01*
X34215763Y15500000D01*
X34144237Y15500000D01*
X34037685Y15484680D01*
X33930000Y15435502D01*
X33930000Y16330636D01*
X33929999Y16330637D01*
X33716508Y16273432D01*
X33502426Y16173603D01*
X33308923Y16038111D01*
X33141889Y15871077D01*
X33006397Y15677574D01*
X32906568Y15463492D01*
X32849363Y15250001D01*
X32849364Y15250000D01*
X33746314Y15250000D01*
X33720507Y15209844D01*
X33680000Y15071889D01*
X33680000Y14928111D01*
X33720507Y14790156D01*
X33746314Y14750000D01*
X32849363Y14750000D01*
X32906567Y14536514D01*
X33006400Y14322421D01*
X33141889Y14128923D01*
X33308922Y13961890D01*
X33502420Y13826401D01*
X33716508Y13726570D01*
X33930000Y13669366D01*
X33930000Y14564499D01*
X34037685Y14515320D01*
X34144237Y14500000D01*
X34215763Y14500000D01*
X34322315Y14515320D01*
X34430000Y14564499D01*
X34430000Y13669366D01*
X34643491Y13726570D01*
X34857579Y13826401D01*
X35051077Y13961890D01*
X35218109Y14128922D01*
X35238886Y14158594D01*
X35309067Y14225779D01*
X35399616Y14260993D01*
X35496748Y14258874D01*
X35585675Y14219747D01*
X35628127Y14175909D01*
X35630303Y14177912D01*
X35706884Y14094724D01*
X35796760Y13997094D01*
X35815837Y13982246D01*
X35864393Y13944453D01*
X35927947Y13870968D01*
X35958542Y13778756D01*
X35959505Y13769680D01*
X35960551Y13757718D01*
X35961483Y13736398D01*
X35961079Y13750293D01*
X35961500Y13743060D01*
X35961500Y13735820D01*
X35962339Y13728639D01*
X35962340Y13728627D01*
X35964930Y13706469D01*
X35965665Y13699269D01*
X35973079Y13614526D01*
X35973127Y13614310D01*
X36002236Y13534333D01*
X36004613Y13527494D01*
X36031380Y13446716D01*
X36031460Y13446551D01*
X36037564Y13437270D01*
X36037565Y13437268D01*
X36068581Y13390111D01*
X36078254Y13375404D01*
X36082125Y13369328D01*
X36082869Y13368122D01*
X36126803Y13296892D01*
X36126921Y13296747D01*
X36188829Y13238340D01*
X36194025Y13233294D01*
X36777249Y12650070D01*
X36831225Y12569288D01*
X36850179Y12474000D01*
X36831225Y12378712D01*
X36777249Y12297930D01*
X36696467Y12243954D01*
X36646519Y12234019D01*
X36637500Y12224999D01*
X36637500Y10275002D01*
X36637501Y10275001D01*
X36730299Y10275001D01*
X36742954Y10275646D01*
X36837651Y10285320D01*
X36914178Y10310678D01*
X37010591Y10322659D01*
X37104250Y10296832D01*
X37180897Y10237129D01*
X37228861Y10152639D01*
X37241500Y10074317D01*
X37241500Y9377422D01*
X37222546Y9282134D01*
X37168570Y9201352D01*
X37087788Y9147376D01*
X36992500Y9128422D01*
X36897212Y9147376D01*
X36816430Y9201352D01*
X36762454Y9282134D01*
X36753387Y9307952D01*
X36751282Y9315197D01*
X36667682Y9456556D01*
X36551555Y9572683D01*
X36410195Y9656283D01*
X36252493Y9702100D01*
X36220509Y9704617D01*
X36210745Y9705000D01*
X35675001Y9705000D01*
X35675000Y9704999D01*
X35675000Y8904000D01*
X35656046Y8808712D01*
X35602070Y8727930D01*
X35521288Y8673954D01*
X35426000Y8655000D01*
X34052705Y8655000D01*
X34047123Y8648963D01*
X34039339Y8583210D01*
X33991865Y8498444D01*
X33915567Y8438298D01*
X33822059Y8411928D01*
X33725577Y8423350D01*
X33640811Y8470824D01*
X33626459Y8484091D01*
X32955549Y9155000D01*
X34052705Y9155000D01*
X35174999Y9155000D01*
X35175000Y9155001D01*
X35175000Y9704999D01*
X35174999Y9705000D01*
X34639255Y9705000D01*
X34629490Y9704617D01*
X34597506Y9702100D01*
X34439804Y9656283D01*
X34298444Y9572683D01*
X34182317Y9456556D01*
X34098716Y9315196D01*
X34052900Y9157494D01*
X34052705Y9155000D01*
X32955549Y9155000D01*
X32931430Y9179119D01*
X32877453Y9259901D01*
X32858500Y9355184D01*
X32858500Y10943800D01*
X32860197Y10969701D01*
X35350001Y10969701D01*
X35350645Y10957046D01*
X35360319Y10862351D01*
X35414547Y10698698D01*
X35505054Y10551964D01*
X35626963Y10430055D01*
X35773697Y10339548D01*
X35937348Y10285320D01*
X36032048Y10275645D01*
X36044697Y10275001D01*
X36137499Y10275001D01*
X36137500Y10275002D01*
X36137500Y11000000D01*
X35350002Y11000000D01*
X35350001Y10999999D01*
X35350001Y10969701D01*
X32860197Y10969701D01*
X32860630Y10976302D01*
X32863750Y11000001D01*
X32858500Y11039878D01*
X32858500Y11039885D01*
X32849374Y11109201D01*
X32842838Y11158850D01*
X32784643Y11299343D01*
X32782082Y11306148D01*
X32781524Y11306876D01*
X32708477Y11402072D01*
X32708474Y11402075D01*
X32683987Y11433987D01*
X32672078Y11443125D01*
X32665023Y11448539D01*
X32640536Y11470013D01*
X32610548Y11500001D01*
X35350000Y11500001D01*
X35350001Y11500000D01*
X36137499Y11500000D01*
X36137500Y11500001D01*
X36137500Y12225000D01*
X36044681Y12225000D01*
X36032064Y12224357D01*
X35937350Y12214681D01*
X35773697Y12160453D01*
X35626963Y12069946D01*
X35505054Y11948037D01*
X35414547Y11801303D01*
X35360319Y11637652D01*
X35350644Y11542953D01*
X35350000Y11530303D01*
X35350000Y11500001D01*
X32610548Y11500001D01*
X31970011Y12140538D01*
X31948537Y12165025D01*
X31933986Y12183988D01*
X31913724Y12199536D01*
X31913721Y12199538D01*
X31902074Y12208475D01*
X31902072Y12208477D01*
X31806876Y12281524D01*
X31806875Y12281525D01*
X31658849Y12342839D01*
X31639453Y12345393D01*
X31539886Y12358500D01*
X31539877Y12358501D01*
X31467503Y12368028D01*
X31468004Y12371839D01*
X31433407Y12374110D01*
X31346276Y12417091D01*
X31282225Y12490142D01*
X31280130Y12496316D01*
X30202516Y13573930D01*
X30148540Y13654712D01*
X30129586Y13750000D01*
X30733553Y13750000D01*
X31560361Y12923191D01*
X31560362Y12923192D01*
X31590889Y12984743D01*
X31637086Y13170505D01*
X31639713Y13209242D01*
X31640000Y13217699D01*
X31640000Y14282302D01*
X31639713Y14290759D01*
X31637086Y14329496D01*
X31590890Y14515254D01*
X31560361Y14576810D01*
X30733553Y13750001D01*
X30733553Y13750000D01*
X30129586Y13750000D01*
X30148540Y13845288D01*
X30202516Y13926070D01*
X30202517Y13926070D01*
X30380001Y14103553D01*
X31233763Y14957317D01*
X31065253Y15040891D01*
X30879495Y15087087D01*
X30840758Y15089714D01*
X30832301Y15090000D01*
X29927699Y15090000D01*
X29919241Y15089714D01*
X29880504Y15087087D01*
X29694744Y15040891D01*
X29609634Y14998679D01*
X29515847Y14973322D01*
X29419495Y14985785D01*
X29335246Y15034172D01*
X29275928Y15111117D01*
X29250571Y15204904D01*
X29250000Y15221751D01*
X29250000Y18251000D01*
X29268954Y18346288D01*
X29322930Y18427070D01*
X29403712Y18481046D01*
X29499000Y18500000D01*
X44251000Y18500000D01*
X44346288Y18481046D01*
G37*
G04 #@! TD.AperFunction*
M02*
