G04 #@! TF.GenerationSoftware,KiCad,Pcbnew,7.0.2*
G04 #@! TF.CreationDate,2023-06-05T15:13:54+09:00*
G04 #@! TF.ProjectId,sync,73796e63-2e6b-4696-9361-645f70636258,rev?*
G04 #@! TF.SameCoordinates,PX3473bc0PY4c4b400*
G04 #@! TF.FileFunction,Legend,Top*
G04 #@! TF.FilePolarity,Positive*
%FSLAX46Y46*%
G04 Gerber Fmt 4.6, Leading zero omitted, Abs format (unit mm)*
G04 Created by KiCad (PCBNEW 7.0.2) date 2023-06-05 15:13:54*
%MOMM*%
%LPD*%
G01*
G04 APERTURE LIST*
%ADD10C,0.150000*%
%ADD11C,0.100000*%
%ADD12C,0.120000*%
G04 APERTURE END LIST*
D10*
X34583333Y12132620D02*
X34535714Y12085000D01*
X34535714Y12085000D02*
X34392857Y12037381D01*
X34392857Y12037381D02*
X34297619Y12037381D01*
X34297619Y12037381D02*
X34154762Y12085000D01*
X34154762Y12085000D02*
X34059524Y12180239D01*
X34059524Y12180239D02*
X34011905Y12275477D01*
X34011905Y12275477D02*
X33964286Y12465953D01*
X33964286Y12465953D02*
X33964286Y12608810D01*
X33964286Y12608810D02*
X34011905Y12799286D01*
X34011905Y12799286D02*
X34059524Y12894524D01*
X34059524Y12894524D02*
X34154762Y12989762D01*
X34154762Y12989762D02*
X34297619Y13037381D01*
X34297619Y13037381D02*
X34392857Y13037381D01*
X34392857Y13037381D02*
X34535714Y12989762D01*
X34535714Y12989762D02*
X34583333Y12942143D01*
X35535714Y12037381D02*
X34964286Y12037381D01*
X35250000Y12037381D02*
X35250000Y13037381D01*
X35250000Y13037381D02*
X35154762Y12894524D01*
X35154762Y12894524D02*
X35059524Y12799286D01*
X35059524Y12799286D02*
X34964286Y12751667D01*
X31833333Y7037381D02*
X31500000Y7513572D01*
X31261905Y7037381D02*
X31261905Y8037381D01*
X31261905Y8037381D02*
X31642857Y8037381D01*
X31642857Y8037381D02*
X31738095Y7989762D01*
X31738095Y7989762D02*
X31785714Y7942143D01*
X31785714Y7942143D02*
X31833333Y7846905D01*
X31833333Y7846905D02*
X31833333Y7704048D01*
X31833333Y7704048D02*
X31785714Y7608810D01*
X31785714Y7608810D02*
X31738095Y7561191D01*
X31738095Y7561191D02*
X31642857Y7513572D01*
X31642857Y7513572D02*
X31261905Y7513572D01*
X32785714Y7037381D02*
X32214286Y7037381D01*
X32500000Y7037381D02*
X32500000Y8037381D01*
X32500000Y8037381D02*
X32404762Y7894524D01*
X32404762Y7894524D02*
X32309524Y7799286D01*
X32309524Y7799286D02*
X32214286Y7751667D01*
X24833333Y7037381D02*
X24500000Y7513572D01*
X24261905Y7037381D02*
X24261905Y8037381D01*
X24261905Y8037381D02*
X24642857Y8037381D01*
X24642857Y8037381D02*
X24738095Y7989762D01*
X24738095Y7989762D02*
X24785714Y7942143D01*
X24785714Y7942143D02*
X24833333Y7846905D01*
X24833333Y7846905D02*
X24833333Y7704048D01*
X24833333Y7704048D02*
X24785714Y7608810D01*
X24785714Y7608810D02*
X24738095Y7561191D01*
X24738095Y7561191D02*
X24642857Y7513572D01*
X24642857Y7513572D02*
X24261905Y7513572D01*
X25214286Y7942143D02*
X25261905Y7989762D01*
X25261905Y7989762D02*
X25357143Y8037381D01*
X25357143Y8037381D02*
X25595238Y8037381D01*
X25595238Y8037381D02*
X25690476Y7989762D01*
X25690476Y7989762D02*
X25738095Y7942143D01*
X25738095Y7942143D02*
X25785714Y7846905D01*
X25785714Y7846905D02*
X25785714Y7751667D01*
X25785714Y7751667D02*
X25738095Y7608810D01*
X25738095Y7608810D02*
X25166667Y7037381D01*
X25166667Y7037381D02*
X25785714Y7037381D01*
D11*
X23641905Y13537381D02*
X23641905Y14537381D01*
X23641905Y14537381D02*
X23880000Y14537381D01*
X23880000Y14537381D02*
X24022857Y14489762D01*
X24022857Y14489762D02*
X24118095Y14394524D01*
X24118095Y14394524D02*
X24165714Y14299286D01*
X24165714Y14299286D02*
X24213333Y14108810D01*
X24213333Y14108810D02*
X24213333Y13965953D01*
X24213333Y13965953D02*
X24165714Y13775477D01*
X24165714Y13775477D02*
X24118095Y13680239D01*
X24118095Y13680239D02*
X24022857Y13585000D01*
X24022857Y13585000D02*
X23880000Y13537381D01*
X23880000Y13537381D02*
X23641905Y13537381D01*
X24594286Y14442143D02*
X24641905Y14489762D01*
X24641905Y14489762D02*
X24737143Y14537381D01*
X24737143Y14537381D02*
X24975238Y14537381D01*
X24975238Y14537381D02*
X25070476Y14489762D01*
X25070476Y14489762D02*
X25118095Y14442143D01*
X25118095Y14442143D02*
X25165714Y14346905D01*
X25165714Y14346905D02*
X25165714Y14251667D01*
X25165714Y14251667D02*
X25118095Y14108810D01*
X25118095Y14108810D02*
X24546667Y13537381D01*
X24546667Y13537381D02*
X25165714Y13537381D01*
X24261905Y3287381D02*
X24261905Y4287381D01*
X24261905Y4287381D02*
X24500000Y4287381D01*
X24500000Y4287381D02*
X24642857Y4239762D01*
X24642857Y4239762D02*
X24738095Y4144524D01*
X24738095Y4144524D02*
X24785714Y4049286D01*
X24785714Y4049286D02*
X24833333Y3858810D01*
X24833333Y3858810D02*
X24833333Y3715953D01*
X24833333Y3715953D02*
X24785714Y3525477D01*
X24785714Y3525477D02*
X24738095Y3430239D01*
X24738095Y3430239D02*
X24642857Y3335000D01*
X24642857Y3335000D02*
X24500000Y3287381D01*
X24500000Y3287381D02*
X24261905Y3287381D01*
X25785714Y3287381D02*
X25214286Y3287381D01*
X25500000Y3287381D02*
X25500000Y4287381D01*
X25500000Y4287381D02*
X25404762Y4144524D01*
X25404762Y4144524D02*
X25309524Y4049286D01*
X25309524Y4049286D02*
X25214286Y4001667D01*
D10*
X43592619Y14666667D02*
X44306904Y14666667D01*
X44306904Y14666667D02*
X44449761Y14619048D01*
X44449761Y14619048D02*
X44545000Y14523810D01*
X44545000Y14523810D02*
X44592619Y14380953D01*
X44592619Y14380953D02*
X44592619Y14285715D01*
X44592619Y15666667D02*
X44592619Y15095239D01*
X44592619Y15380953D02*
X43592619Y15380953D01*
X43592619Y15380953D02*
X43735476Y15285715D01*
X43735476Y15285715D02*
X43830714Y15190477D01*
X43830714Y15190477D02*
X43878333Y15095239D01*
X2462619Y9666667D02*
X3176904Y9666667D01*
X3176904Y9666667D02*
X3319761Y9619048D01*
X3319761Y9619048D02*
X3415000Y9523810D01*
X3415000Y9523810D02*
X3462619Y9380953D01*
X3462619Y9380953D02*
X3462619Y9285715D01*
X2557857Y10095239D02*
X2510238Y10142858D01*
X2510238Y10142858D02*
X2462619Y10238096D01*
X2462619Y10238096D02*
X2462619Y10476191D01*
X2462619Y10476191D02*
X2510238Y10571429D01*
X2510238Y10571429D02*
X2557857Y10619048D01*
X2557857Y10619048D02*
X2653095Y10666667D01*
X2653095Y10666667D02*
X2748333Y10666667D01*
X2748333Y10666667D02*
X2891190Y10619048D01*
X2891190Y10619048D02*
X3462619Y10047620D01*
X3462619Y10047620D02*
X3462619Y10666667D01*
X31666666Y12537381D02*
X31666666Y11823096D01*
X31666666Y11823096D02*
X31619047Y11680239D01*
X31619047Y11680239D02*
X31523809Y11585000D01*
X31523809Y11585000D02*
X31380952Y11537381D01*
X31380952Y11537381D02*
X31285714Y11537381D01*
X32142857Y11537381D02*
X32142857Y12537381D01*
X32142857Y12537381D02*
X32523809Y12537381D01*
X32523809Y12537381D02*
X32619047Y12489762D01*
X32619047Y12489762D02*
X32666666Y12442143D01*
X32666666Y12442143D02*
X32714285Y12346905D01*
X32714285Y12346905D02*
X32714285Y12204048D01*
X32714285Y12204048D02*
X32666666Y12108810D01*
X32666666Y12108810D02*
X32619047Y12061191D01*
X32619047Y12061191D02*
X32523809Y12013572D01*
X32523809Y12013572D02*
X32142857Y12013572D01*
X33666666Y11537381D02*
X33095238Y11537381D01*
X33380952Y11537381D02*
X33380952Y12537381D01*
X33380952Y12537381D02*
X33285714Y12394524D01*
X33285714Y12394524D02*
X33190476Y12299286D01*
X33190476Y12299286D02*
X33095238Y12251667D01*
X37238095Y4137381D02*
X37238095Y3327858D01*
X37238095Y3327858D02*
X37285714Y3232620D01*
X37285714Y3232620D02*
X37333333Y3185000D01*
X37333333Y3185000D02*
X37428571Y3137381D01*
X37428571Y3137381D02*
X37619047Y3137381D01*
X37619047Y3137381D02*
X37714285Y3185000D01*
X37714285Y3185000D02*
X37761904Y3232620D01*
X37761904Y3232620D02*
X37809523Y3327858D01*
X37809523Y3327858D02*
X37809523Y4137381D01*
X38809523Y3137381D02*
X38238095Y3137381D01*
X38523809Y3137381D02*
X38523809Y4137381D01*
X38523809Y4137381D02*
X38428571Y3994524D01*
X38428571Y3994524D02*
X38333333Y3899286D01*
X38333333Y3899286D02*
X38238095Y3851667D01*
D12*
X37396267Y10740000D02*
X37103733Y10740000D01*
X37396267Y11760000D02*
X37103733Y11760000D01*
X29477500Y7012742D02*
X29477500Y7487258D01*
X30522500Y7012742D02*
X30522500Y7487258D01*
X26477500Y7012742D02*
X26477500Y7487258D01*
X27522500Y7012742D02*
X27522500Y7487258D01*
D11*
X25860000Y15150000D02*
X31140000Y15150000D01*
X25860000Y14750000D02*
X25860000Y15150000D01*
X25860000Y12350000D02*
X25860000Y12750000D01*
X27250000Y15150000D02*
X27250000Y14750000D01*
X27250000Y12750000D02*
X27250000Y12350000D01*
X31140000Y15150000D02*
X31140000Y14750000D01*
X31140000Y12750000D02*
X31140000Y12350000D01*
X31140000Y12350000D02*
X25860000Y12350000D01*
X26110000Y5400000D02*
X31390000Y5400000D01*
X26110000Y5000000D02*
X26110000Y5400000D01*
X26110000Y2600000D02*
X26110000Y3000000D01*
X27500000Y5400000D02*
X27500000Y5000000D01*
X27500000Y3000000D02*
X27500000Y2600000D01*
X31390000Y5400000D02*
X31390000Y5000000D01*
X31390000Y3000000D02*
X31390000Y2600000D01*
X31390000Y2600000D02*
X26110000Y2600000D01*
D12*
X43130000Y16330000D02*
X43130000Y15000000D01*
X41800000Y16330000D02*
X43130000Y16330000D01*
X40530000Y16330000D02*
X32850000Y16330000D01*
X40530000Y16330000D02*
X40530000Y13670000D01*
X32850000Y16330000D02*
X32850000Y13670000D01*
X40530000Y13670000D02*
X32850000Y13670000D01*
X4090000Y3640000D02*
X16910000Y3640000D01*
X16910000Y3640000D02*
X16910000Y16360000D01*
X14610000Y4750000D02*
X14610000Y15250000D01*
X16910000Y4750000D02*
X14610000Y4750000D01*
X4090000Y4860000D02*
X4090000Y3640000D01*
X6990000Y4860000D02*
X4090000Y4860000D01*
X6990000Y5140000D02*
X6990000Y4860000D01*
X9600000Y5700000D02*
X9600000Y3640000D01*
X13010000Y5700000D02*
X9600000Y5700000D01*
X6000000Y5850000D02*
X6000000Y6650000D01*
X6400000Y6250000D02*
X6000000Y5850000D01*
X6000000Y6650000D02*
X6400000Y6250000D01*
X9600000Y6800000D02*
X13010000Y6800000D01*
X13010000Y6800000D02*
X13010000Y5700000D01*
X9600000Y7300000D02*
X9600000Y6800000D01*
X14610000Y7300000D02*
X9600000Y7300000D01*
X11000000Y9200000D02*
X11000000Y10800000D01*
X12800000Y9200000D02*
X11000000Y9200000D01*
X11000000Y10800000D02*
X12800000Y10800000D01*
X12800000Y10800000D02*
X12800000Y9200000D01*
X9600000Y12700000D02*
X9600000Y13200000D01*
X14610000Y12700000D02*
X9600000Y12700000D01*
X9600000Y13200000D02*
X13010000Y13200000D01*
X13010000Y13200000D02*
X13010000Y14300000D01*
X9600000Y14300000D02*
X9600000Y16360000D01*
X13010000Y14300000D02*
X9600000Y14300000D01*
X4090000Y15140000D02*
X6990000Y15140000D01*
X6990000Y15140000D02*
X6990000Y14860000D01*
X14610000Y15250000D02*
X16910000Y15250000D01*
X4090000Y16360000D02*
X4090000Y15140000D01*
X16910000Y16360000D02*
X4090000Y16360000D01*
X26700000Y11250000D02*
X30800000Y11250000D01*
X26700000Y9250000D02*
X26700000Y11250000D01*
X27150000Y8750000D02*
X27750000Y8750000D01*
X27450000Y9050000D02*
X27150000Y8750000D01*
X27450000Y9050000D02*
X27750000Y8750000D01*
X30800000Y11250000D02*
X30800000Y9250000D01*
X30800000Y9250000D02*
X26700000Y9250000D01*
X38000000Y4440000D02*
X41450000Y4440000D01*
X38000000Y4440000D02*
X36050000Y4440000D01*
X38000000Y9560000D02*
X39950000Y9560000D01*
X38000000Y9560000D02*
X36050000Y9560000D01*
M02*
